<?xml version="1.0" encoding="UTF-8"?>
<!DOCTYPE svg PUBLIC "-//W3C//DTD SVG 1.1//EN" "http://www.w3.org/Graphics/SVG/1.1/DTD/svg11.dtd">
<svg version="1.2" width="76.2mm" height="23.11mm" viewBox="0 0 7620 2311" preserveAspectRatio="xMidYMid" fill-rule="evenodd" stroke-width="28.222" stroke-linejoin="round" xmlns="http://www.w3.org/2000/svg" xmlns:ooo="http://xml.openoffice.org/svg/export" xmlns:xlink="http://www.w3.org/1999/xlink" xmlns:presentation="http://sun.com/xmlns/staroffice/presentation" xmlns:smil="http://www.w3.org/2001/SMIL20/" xmlns:anim="urn:oasis:names:tc:opendocument:xmlns:animation:1.0" xml:space="preserve">
 <defs class="ClipPathGroup">
  <clipPath id="presentation_clip_path" clipPathUnits="userSpaceOnUse">
   <rect x="0" y="0" width="7620" height="2311"/>
  </clipPath>
  <clipPath id="presentation_clip_path_shrink" clipPathUnits="userSpaceOnUse">
   <rect x="7" y="2" width="7605" height="2307"/>
  </clipPath>
 </defs>
 <defs class="TextShapeIndex">
  <g ooo:slide="id1" ooo:id-list="id3 id4 id5 id6 id7 id8 id9 id10 id11 id12 id13 id14 id15 id16 id17 id18 id19 id20 id21 id22 id23 id24 id25 id26 id27 id28 id29 id30 id31 id32 id33 id34 id35 id36 id37"/>
 </defs>
 <defs class="EmbeddedBulletChars">
  <g id="bullet-char-template-57356" transform="scale(0.00048828125,-0.00048828125)">
   <path d="M 580,1141 L 1163,571 580,0 -4,571 580,1141 Z"/>
  </g>
  <g id="bullet-char-template-57354" transform="scale(0.00048828125,-0.00048828125)">
   <path d="M 8,1128 L 1137,1128 1137,0 8,0 8,1128 Z"/>
  </g>
  <g id="bullet-char-template-10146" transform="scale(0.00048828125,-0.00048828125)">
   <path d="M 174,0 L 602,739 174,1481 1456,739 174,0 Z M 1358,739 L 309,1346 659,739 1358,739 Z"/>
  </g>
  <g id="bullet-char-template-10132" transform="scale(0.00048828125,-0.00048828125)">
   <path d="M 2015,739 L 1276,0 717,0 1260,543 174,543 174,936 1260,936 717,1481 1274,1481 2015,739 Z"/>
  </g>
  <g id="bullet-char-template-10007" transform="scale(0.00048828125,-0.00048828125)">
   <path d="M 0,-2 C -7,14 -16,27 -25,37 L 356,567 C 262,823 215,952 215,954 215,979 228,992 255,992 264,992 276,990 289,987 310,991 331,999 354,1012 L 381,999 492,748 772,1049 836,1024 860,1049 C 881,1039 901,1025 922,1006 886,937 835,863 770,784 769,783 710,716 594,584 L 774,223 C 774,196 753,168 711,139 L 727,119 C 717,90 699,76 672,76 641,76 570,178 457,381 L 164,-76 C 142,-110 111,-127 72,-127 30,-127 9,-110 8,-76 1,-67 -2,-52 -2,-32 -2,-23 -1,-13 0,-2 Z"/>
  </g>
  <g id="bullet-char-template-10004" transform="scale(0.00048828125,-0.00048828125)">
   <path d="M 285,-33 C 182,-33 111,30 74,156 52,228 41,333 41,471 41,549 55,616 82,672 116,743 169,778 240,778 293,778 328,747 346,684 L 369,508 C 377,444 397,411 428,410 L 1163,1116 C 1174,1127 1196,1133 1229,1133 1271,1133 1292,1118 1292,1087 L 1292,965 C 1292,929 1282,901 1262,881 L 442,47 C 390,-6 338,-33 285,-33 Z"/>
  </g>
  <g id="bullet-char-template-9679" transform="scale(0.00048828125,-0.00048828125)">
   <path d="M 813,0 C 632,0 489,54 383,161 276,268 223,411 223,592 223,773 276,916 383,1023 489,1130 632,1184 813,1184 992,1184 1136,1130 1245,1023 1353,916 1407,772 1407,592 1407,412 1353,268 1245,161 1136,54 992,0 813,0 Z"/>
  </g>
  <g id="bullet-char-template-8226" transform="scale(0.00048828125,-0.00048828125)">
   <path d="M 346,457 C 273,457 209,483 155,535 101,586 74,649 74,723 74,796 101,859 155,911 209,963 273,989 346,989 419,989 480,963 531,910 582,859 608,796 608,723 608,648 583,586 532,535 482,483 420,457 346,457 Z"/>
  </g>
  <g id="bullet-char-template-8211" transform="scale(0.00048828125,-0.00048828125)">
   <path d="M -4,459 L 1135,459 1135,606 -4,606 -4,459 Z"/>
  </g>
  <g id="bullet-char-template-61548" transform="scale(0.00048828125,-0.00048828125)">
   <path d="M 173,740 C 173,903 231,1043 346,1159 462,1274 601,1332 765,1332 928,1332 1067,1274 1183,1159 1299,1043 1357,903 1357,740 1357,577 1299,437 1183,322 1067,206 928,148 765,148 601,148 462,206 346,322 231,437 173,577 173,740 Z"/>
  </g>
 </defs>
 <g>
  <g id="id2" class="Master_Slide">
   <g id="bg-id2" class="Background"/>
   <g id="bo-id2" class="BackgroundObjects"/>
  </g>
 </g>
 <g class="SlideGroup">
  <g>
   <g id="container-id1">
    <g id="id1" class="Slide" clip-path="url(#presentation_clip_path)">
     <g class="Page">
      <g class="com.sun.star.drawing.CustomShape">
       <g id="id3">
        <rect class="BoundingBox" stroke="none" fill="none" x="7179" y="243" width="308" height="1280"/>
        <path fill="rgb(178,178,178)" stroke="none" d="M 7220,897 C 7234,1007 7254,1114 7276,1208 7299,1302 7323,1379 7347,1431 7372,1484 7395,1510 7414,1508 7434,1505 7450,1474 7459,1416 7469,1359 7473,1279 7470,1182 7468,1086 7459,977 7444,868 7430,758 7410,651 7388,557 7366,463 7341,386 7317,334 7293,281 7269,255 7250,257 7230,260 7215,291 7205,349 7195,406 7191,486 7194,583 7197,679 7206,788 7220,897 L 7220,897 Z"/>
        <path fill="none" stroke="rgb(255,255,0)" stroke-width="28" stroke-linejoin="round" d="M 7220,897 C 7234,1007 7254,1114 7276,1208 7299,1302 7323,1379 7347,1431 7372,1484 7395,1510 7414,1508 7434,1505 7450,1474 7459,1416 7469,1359 7473,1279 7470,1182 7468,1086 7459,977 7444,868 7430,758 7410,651 7388,557 7366,463 7341,386 7317,334 7293,281 7269,255 7250,257 7230,260 7215,291 7205,349 7195,406 7191,486 7194,583 7197,679 7206,788 7220,897 L 7220,897 Z"/>
       </g>
      </g>
      <g class="com.sun.star.drawing.CustomShape">
       <g id="id4">
        <rect class="BoundingBox" stroke="none" fill="none" x="576" y="757" width="6779" height="1139"/>
        <path fill="rgb(42,96,153)" stroke="none" d="M 3981,1451 L 609,1895 576,1645 7321,757 7354,1007 3981,1451 Z"/>
       </g>
      </g>
      <g class="com.sun.star.drawing.CustomShape">
       <g id="id5">
        <rect class="BoundingBox" stroke="none" fill="none" x="613" y="1442" width="3425" height="446"/>
        <path fill="rgb(42,96,153)" stroke="none" d="M 4036,1818 L 614,1887 3987,1443 4036,1818 4036,1818 Z"/>
       </g>
      </g>
      <g class="com.sun.star.drawing.CustomShape">
       <g id="id6">
        <rect class="BoundingBox" stroke="none" fill="none" x="3980" y="1021" width="3299" height="804"/>
        <path fill="rgb(42,96,153)" stroke="none" d="M 5653,1610 L 4029,1824 3980,1450 7228,1022 7277,1396 5653,1610 Z"/>
       </g>
      </g>
      <g class="com.sun.star.drawing.CustomShape">
       <g id="id7">
        <rect class="BoundingBox" stroke="none" fill="none" x="7187" y="1000" width="174" height="400"/>
        <path fill="rgb(42,96,153)" stroke="none" d="M 7237,1399 L 7359,1000 7188,1023 7237,1399 7237,1399 Z"/>
       </g>
      </g>
      <g class="com.sun.star.drawing.CustomShape">
       <g id="id8">
        <rect class="BoundingBox" stroke="none" fill="none" x="6408" y="1776" width="256" height="256"/>
        <path fill="rgb(0,0,0)" stroke="none" d="M 6410,1920 C 6413,1942 6422,1963 6435,1981 6449,1998 6467,2012 6487,2020 6508,2029 6530,2032 6552,2029 6574,2026 6595,2017 6613,2004 6630,1990 6644,1972 6652,1952 6661,1931 6664,1909 6661,1887 6658,1865 6649,1844 6636,1827 6622,1809 6604,1795 6584,1787 6563,1778 6541,1775 6519,1778 6497,1781 6476,1790 6459,1803 6441,1817 6427,1835 6419,1855 6410,1876 6407,1898 6410,1920 L 6410,1920 Z"/>
        <path fill="none" stroke="rgb(0,0,0)" d="M 6410,1920 C 6413,1942 6422,1963 6435,1981 6449,1998 6467,2012 6487,2020 6508,2029 6530,2032 6552,2029 6574,2026 6595,2017 6613,2004 6630,1990 6644,1972 6652,1952 6661,1931 6664,1909 6661,1887 6658,1865 6649,1844 6636,1827 6622,1809 6604,1795 6584,1787 6563,1778 6541,1775 6519,1778 6497,1781 6476,1790 6459,1803 6441,1817 6427,1835 6419,1855 6410,1876 6407,1898 6410,1920 Z"/>
       </g>
      </g>
      <g class="com.sun.star.drawing.CustomShape">
       <g id="id9">
        <rect class="BoundingBox" stroke="none" fill="none" x="6348" y="1771" width="379" height="138"/>
        <path fill="rgb(42,96,153)" stroke="none" d="M 6349,1864 C 6350,1875 6360,1885 6378,1892 6396,1900 6421,1905 6450,1906 6479,1908 6512,1907 6545,1903 6578,1898 6610,1891 6638,1882 6666,1872 6688,1861 6703,1850 6719,1838 6726,1826 6724,1815 6723,1804 6713,1794 6695,1787 6677,1779 6653,1774 6623,1773 6594,1771 6561,1772 6528,1777 6495,1781 6463,1788 6435,1797 6408,1807 6385,1818 6370,1830 6354,1841 6347,1853 6349,1864 L 6349,1864 Z"/>
        <path fill="none" stroke="rgb(0,0,0)" d="M 6349,1864 C 6350,1875 6360,1885 6378,1892 6396,1900 6421,1905 6450,1906 6479,1908 6512,1907 6545,1903 6578,1898 6610,1891 6638,1882 6666,1872 6688,1861 6703,1850 6719,1838 6726,1826 6724,1815 6723,1804 6713,1794 6695,1787 6677,1779 6653,1774 6623,1773 6594,1771 6561,1772 6528,1777 6495,1781 6463,1788 6435,1797 6408,1807 6385,1818 6370,1830 6354,1841 6347,1853 6349,1864 Z"/>
       </g>
      </g>
      <g class="com.sun.star.drawing.CustomShape">
       <g id="id10">
        <rect class="BoundingBox" stroke="none" fill="none" x="5257" y="2055" width="256" height="256"/>
        <path fill="rgb(0,0,0)" stroke="none" d="M 5259,2199 C 5262,2221 5271,2242 5284,2260 5298,2277 5316,2291 5336,2299 5357,2308 5379,2311 5401,2308 5423,2305 5444,2296 5462,2283 5479,2269 5493,2251 5501,2231 5510,2210 5513,2188 5510,2166 5507,2144 5498,2123 5485,2106 5471,2088 5453,2074 5433,2066 5412,2057 5390,2054 5368,2057 5346,2060 5325,2069 5308,2082 5290,2096 5276,2114 5268,2134 5259,2155 5256,2177 5259,2199 L 5259,2199 Z"/>
        <path fill="none" stroke="rgb(0,0,0)" d="M 5259,2199 C 5262,2221 5271,2242 5284,2260 5298,2277 5316,2291 5336,2299 5357,2308 5379,2311 5401,2308 5423,2305 5444,2296 5462,2283 5479,2269 5493,2251 5501,2231 5510,2210 5513,2188 5510,2166 5507,2144 5498,2123 5485,2106 5471,2088 5453,2074 5433,2066 5412,2057 5390,2054 5368,2057 5346,2060 5325,2069 5308,2082 5290,2096 5276,2114 5268,2134 5259,2155 5256,2177 5259,2199 Z"/>
       </g>
      </g>
      <g class="com.sun.star.drawing.CustomShape">
       <g id="id11">
        <rect class="BoundingBox" stroke="none" fill="none" x="5208" y="2045" width="379" height="138"/>
        <path fill="rgb(42,96,153)" stroke="none" d="M 5209,2138 C 5210,2149 5220,2159 5238,2166 5256,2174 5281,2179 5310,2180 5339,2182 5372,2181 5405,2177 5438,2172 5470,2165 5498,2156 5526,2146 5548,2135 5563,2124 5579,2112 5586,2100 5584,2089 5583,2078 5573,2068 5555,2061 5537,2053 5513,2048 5483,2047 5454,2045 5421,2046 5388,2051 5355,2055 5323,2062 5295,2071 5268,2081 5245,2092 5230,2104 5214,2115 5207,2127 5209,2138 L 5209,2138 Z"/>
        <path fill="none" stroke="rgb(0,0,0)" d="M 5209,2138 C 5210,2149 5220,2159 5238,2166 5256,2174 5281,2179 5310,2180 5339,2182 5372,2181 5405,2177 5438,2172 5470,2165 5498,2156 5526,2146 5548,2135 5563,2124 5579,2112 5586,2100 5584,2089 5583,2078 5573,2068 5555,2061 5537,2053 5513,2048 5483,2047 5454,2045 5421,2046 5388,2051 5355,2055 5323,2062 5295,2071 5268,2081 5245,2092 5230,2104 5214,2115 5207,2127 5209,2138 Z"/>
       </g>
      </g>
      <g class="com.sun.star.drawing.CustomShape">
       <g id="id12">
        <rect class="BoundingBox" stroke="none" fill="none" x="4916" y="1945" width="256" height="256"/>
        <path fill="rgb(0,0,0)" stroke="none" d="M 4918,2089 C 4921,2111 4930,2132 4943,2150 4957,2167 4975,2181 4995,2189 5016,2198 5038,2201 5060,2198 5082,2195 5103,2186 5121,2173 5138,2159 5152,2141 5160,2121 5169,2100 5172,2078 5169,2056 5166,2034 5157,2013 5144,1996 5130,1978 5112,1964 5092,1956 5071,1947 5049,1944 5027,1947 5005,1950 4984,1959 4967,1972 4949,1986 4935,2004 4927,2024 4918,2045 4915,2067 4918,2089 L 4918,2089 Z"/>
        <path fill="none" stroke="rgb(0,0,0)" d="M 4918,2089 C 4921,2111 4930,2132 4943,2150 4957,2167 4975,2181 4995,2189 5016,2198 5038,2201 5060,2198 5082,2195 5103,2186 5121,2173 5138,2159 5152,2141 5160,2121 5169,2100 5172,2078 5169,2056 5166,2034 5157,2013 5144,1996 5130,1978 5112,1964 5092,1956 5071,1947 5049,1944 5027,1947 5005,1950 4984,1959 4967,1972 4949,1986 4935,2004 4927,2024 4918,2045 4915,2067 4918,2089 Z"/>
       </g>
      </g>
      <g class="com.sun.star.drawing.CustomShape">
       <g id="id13">
        <rect class="BoundingBox" stroke="none" fill="none" x="4831" y="1937" width="379" height="138"/>
        <path fill="rgb(42,96,153)" stroke="none" d="M 4832,2030 C 4833,2041 4843,2051 4861,2058 4879,2066 4904,2071 4933,2072 4962,2074 4995,2073 5028,2069 5061,2064 5093,2057 5121,2048 5149,2038 5171,2027 5186,2016 5202,2004 5209,1992 5207,1981 5206,1970 5196,1960 5178,1953 5160,1945 5136,1940 5106,1939 5077,1937 5044,1938 5011,1943 4978,1947 4946,1954 4918,1963 4891,1973 4868,1984 4853,1996 4837,2007 4830,2019 4832,2030 L 4832,2030 Z"/>
        <path fill="none" stroke="rgb(0,0,0)" d="M 4832,2030 C 4833,2041 4843,2051 4861,2058 4879,2066 4904,2071 4933,2072 4962,2074 4995,2073 5028,2069 5061,2064 5093,2057 5121,2048 5149,2038 5171,2027 5186,2016 5202,2004 5209,1992 5207,1981 5206,1970 5196,1960 5178,1953 5160,1945 5136,1940 5106,1939 5077,1937 5044,1938 5011,1943 4978,1947 4946,1954 4918,1963 4891,1973 4868,1984 4853,1996 4837,2007 4830,2019 4832,2030 Z"/>
       </g>
      </g>
      <g class="com.sun.star.drawing.LineShape">
       <g id="id14">
        <rect class="BoundingBox" stroke="none" fill="none" x="6427" y="1251" width="121" height="555"/>
        <path fill="none" stroke="rgb(42,96,153)" stroke-width="53" stroke-linejoin="round" d="M 6520,1778 L 6454,1278"/>
       </g>
      </g>
      <g class="com.sun.star.drawing.LineShape">
       <g id="id15">
        <rect class="BoundingBox" stroke="none" fill="none" x="4916" y="1567" width="252" height="520"/>
        <path fill="none" stroke="rgb(42,96,153)" stroke-width="53" stroke-linejoin="round" d="M 4943,2059 L 5140,1594"/>
       </g>
      </g>
      <g class="com.sun.star.drawing.LineShape">
       <g id="id16">
        <rect class="BoundingBox" stroke="none" fill="none" x="5214" y="1611" width="209" height="535"/>
        <path fill="none" stroke="rgb(42,96,153)" stroke-width="53" stroke-linejoin="round" d="M 5395,2118 L 5241,1638"/>
       </g>
      </g>
      <g class="com.sun.star.drawing.CustomShape">
       <g id="id17">
        <rect class="BoundingBox" stroke="none" fill="none" x="6360" y="488" width="964" height="393"/>
        <path fill="rgb(42,96,153)" stroke="none" d="M 6360,489 L 7323,759 6412,879 6360,489 6360,489 Z"/>
       </g>
      </g>
      <g class="com.sun.star.drawing.CustomShape">
       <g id="id18">
        <rect class="BoundingBox" stroke="none" fill="none" x="6096" y="160" width="302" height="377"/>
        <path fill="rgb(42,96,153)" stroke="none" d="M 6096,160 L 6397,503 6146,536 6096,160 6096,160 Z"/>
       </g>
      </g>
      <g class="com.sun.star.drawing.CustomShape">
       <g id="id19">
        <rect class="BoundingBox" stroke="none" fill="none" x="4849" y="154" width="1349" height="916"/>
        <path fill="rgb(42,96,153)" stroke="none" d="M 5572,987 L 4947,1069 4849,319 6098,155 6197,905 5572,987 Z"/>
       </g>
      </g>
      <g class="com.sun.star.drawing.CustomShape">
       <g id="id20">
        <rect class="BoundingBox" stroke="none" fill="none" x="5978" y="495" width="487" height="557"/>
        <path fill="rgb(42,96,153)" stroke="none" d="M 6254,1023 L 6043,1051 5978,551 6398,496 6464,996 6254,1023 Z"/>
       </g>
      </g>
      <g class="com.sun.star.drawing.CustomShape">
       <g id="id21">
        <rect class="BoundingBox" stroke="none" fill="none" x="4196" y="317" width="753" height="852"/>
        <path fill="rgb(42,96,153)" stroke="none" d="M 4848,318 L 4197,1167 4947,1068 4848,318 4848,318 Z"/>
       </g>
      </g>
      <g class="com.sun.star.drawing.CustomShape">
       <g id="id22">
        <rect class="BoundingBox" stroke="none" fill="none" x="1082" y="889" width="3374" height="726"/>
        <path fill="rgb(42,96,153)" stroke="none" d="M 4418,889 L 1082,1614 4455,1170 4418,889 4418,889 Z"/>
       </g>
      </g>
      <g class="com.sun.star.drawing.CustomShape">
       <g id="id23">
        <rect class="BoundingBox" stroke="none" fill="none" x="77" y="414" width="1294" height="1241"/>
        <path fill="rgb(42,96,153)" stroke="none" d="M 627,1653 L 1369,1556 401,414 77,457 627,1653 Z"/>
       </g>
      </g>
      <g class="com.sun.star.drawing.CustomShape">
       <g id="id24">
        <rect class="BoundingBox" stroke="none" fill="none" x="656" y="1651" width="835" height="607"/>
        <path fill="rgb(42,96,153)" stroke="none" d="M 1489,1651 L 656,1767 754,2257 1054,2215 1489,1651 Z"/>
       </g>
      </g>
      <g class="com.sun.star.drawing.CustomShape">
       <g id="id25">
        <rect class="BoundingBox" stroke="none" fill="none" x="4762" y="671" width="2298" height="672"/>
        <path fill="rgb(42,96,153)" stroke="none" d="M 5935,1194 L 4811,1342 4762,967 7010,671 7059,1046 5935,1194 Z"/>
       </g>
      </g>
      <g class="com.sun.star.drawing.CustomShape">
       <g id="id26">
        <rect class="BoundingBox" stroke="none" fill="none" x="4819" y="433" width="239" height="893"/>
        <path fill="rgb(42,96,153)" stroke="none" d="M 4994,1317 L 4931,1325 4819,449 4944,433 5056,1309 4994,1317 Z"/>
       </g>
      </g>
      <g class="com.sun.star.drawing.CustomShape">
       <g id="id27">
        <rect class="BoundingBox" stroke="none" fill="none" x="548" y="886" width="6763" height="1014"/>
        <path fill="rgb(85,48,141)" stroke="none" d="M 3937,1455 L 564,1899 548,1774 7293,886 7309,1011 3937,1455 Z"/>
       </g>
      </g>
      <g class="com.sun.star.drawing.LineShape">
       <g id="id28">
        <rect class="BoundingBox" stroke="none" fill="none" x="5401" y="1115" width="852" height="438"/>
        <path fill="none" stroke="rgb(255,255,255)" stroke-width="35" stroke-linejoin="round" d="M 5419,1133 L 6234,1534"/>
       </g>
      </g>
      <g class="com.sun.star.drawing.CustomShape">
       <g id="id29">
        <rect class="BoundingBox" stroke="none" fill="none" x="4944" y="300" width="1056" height="549"/>
        <path fill="rgb(0,0,0)" stroke="none" d="M 5498,781 L 4999,847 4944,433 5943,301 5998,715 5498,781 Z"/>
       </g>
      </g>
      <g class="com.sun.star.drawing.CustomShape">
       <g id="id30">
        <rect class="BoundingBox" stroke="none" fill="none" x="5181" y="154" width="877" height="1242"/>
        <path fill="rgb(0,44,91)" stroke="none" d="M 5330,1395 L 6056,154 5182,269 5330,1395 5330,1395 Z"/>
       </g>
      </g>
      <g class="com.sun.star.drawing.CustomShape">
       <g id="id31">
        <rect class="BoundingBox" stroke="none" fill="none" x="4830" y="271" width="508" height="1174"/>
        <path fill="rgb(0,44,91)" stroke="none" d="M 5157,1420 L 4977,1443 4830,318 5189,271 5336,1396 5157,1420 Z"/>
       </g>
      </g>
      <g class="com.sun.star.drawing.CustomShape">
       <g id="id32">
        <rect class="BoundingBox" stroke="none" fill="none" x="4343" y="321" width="644" height="1212"/>
        <path fill="rgb(0,44,91)" stroke="none" d="M 4837,322 L 4344,1531 4985,1447 4837,322 4837,322 Z"/>
       </g>
      </g>
      <g class="com.sun.star.drawing.CustomShape">
       <g id="id33">
        <rect class="BoundingBox" stroke="none" fill="none" x="4184" y="100" width="691" height="253"/>
        <path fill="rgb(0,44,91)" stroke="none" d="M 4874,352 L 4184,187 4841,101 4874,352 4874,352 Z"/>
       </g>
      </g>
      <g class="com.sun.star.drawing.CustomShape">
       <g id="id34">
        <rect class="BoundingBox" stroke="none" fill="none" x="4818" y="24" width="625" height="305"/>
        <path fill="rgb(0,44,91)" stroke="none" d="M 5144,288 L 4847,327 4818,103 5412,25 5441,249 5144,288 Z"/>
       </g>
      </g>
      <g class="com.sun.star.drawing.CustomShape">
       <g id="id35">
        <rect class="BoundingBox" stroke="none" fill="none" x="5402" y="23" width="656" height="221"/>
        <path fill="rgb(0,44,91)" stroke="none" d="M 5402,23 L 6057,160 5431,242 5402,23 5402,23 Z"/>
       </g>
      </g>
      <g class="com.sun.star.drawing.CustomShape">
       <g id="id36">
        <rect class="BoundingBox" stroke="none" fill="none" x="6053" y="200" width="408" height="504"/>
        <path fill="rgb(0,0,0)" stroke="none" d="M 6053,200 L 6460,657 6119,702 6053,200 6053,200 Z"/>
       </g>
      </g>
      <g class="com.sun.star.drawing.CustomShape">
       <g id="id37">
        <rect class="BoundingBox" stroke="none" fill="none" x="2902" y="1163" width="645" height="546"/>
        <path fill="rgb(85,48,141)" stroke="none" d="M 3199,1172 L 3298,1354 3537,1322 3358,1467 3456,1648 3250,1556 3074,1698 3122,1498 2911,1405 3151,1373 3199,1172 3199,1172 Z"/>
        <path fill="none" stroke="rgb(255,128,0)" stroke-width="18" stroke-linejoin="round" d="M 3199,1172 L 3298,1354 3537,1322 3358,1467 3456,1648 3250,1556 3074,1698 3122,1498 2911,1405 3151,1373 3199,1172 3199,1172 Z"/>
       </g>
      </g>
     </g>
    </g>
   </g>
  </g>
 </g>
</svg>