<?xml version="1.0" encoding="UTF-8"?>
<!DOCTYPE svg PUBLIC "-//W3C//DTD SVG 1.1//EN" "http://www.w3.org/Graphics/SVG/1.1/DTD/svg11.dtd">
<svg version="1.2" width="114.3mm" height="101.6mm" viewBox="0 0 11430 10160" preserveAspectRatio="xMidYMid" fill-rule="evenodd" stroke-width="28.222" stroke-linejoin="round" xmlns="http://www.w3.org/2000/svg" xmlns:ooo="http://xml.openoffice.org/svg/export" xmlns:xlink="http://www.w3.org/1999/xlink" xmlns:presentation="http://sun.com/xmlns/staroffice/presentation" xmlns:smil="http://www.w3.org/2001/SMIL20/" xmlns:anim="urn:oasis:names:tc:opendocument:xmlns:animation:1.0" xml:space="preserve">
 <defs class="ClipPathGroup">
  <clipPath id="presentation_clip_path" clipPathUnits="userSpaceOnUse">
   <rect x="0" y="0" width="11430" height="10160"/>
  </clipPath>
  <clipPath id="presentation_clip_path_shrink" clipPathUnits="userSpaceOnUse">
   <rect x="11" y="10" width="11408" height="10140"/>
  </clipPath>
 </defs>
 <defs class="TextShapeIndex">
  <g ooo:slide="id1" ooo:id-list="id3 id4 id5 id6 id7 id8 id9 id10 id11 id12 id13 id14 id15 id16 id17 id18 id19 id20 id21 id22 id23 id24 id25 id26 id27 id28 id29 id30 id31 id32 id33 id34 id35 id36 id37 id38 id39 id40 id41 id42 id43"/>
 </defs>
 <defs class="EmbeddedBulletChars">
  <g id="bullet-char-template-57356" transform="scale(0.00048828125,-0.00048828125)">
   <path d="M 580,1141 L 1163,571 580,0 -4,571 580,1141 Z"/>
  </g>
  <g id="bullet-char-template-57354" transform="scale(0.00048828125,-0.00048828125)">
   <path d="M 8,1128 L 1137,1128 1137,0 8,0 8,1128 Z"/>
  </g>
  <g id="bullet-char-template-10146" transform="scale(0.00048828125,-0.00048828125)">
   <path d="M 174,0 L 602,739 174,1481 1456,739 174,0 Z M 1358,739 L 309,1346 659,739 1358,739 Z"/>
  </g>
  <g id="bullet-char-template-10132" transform="scale(0.00048828125,-0.00048828125)">
   <path d="M 2015,739 L 1276,0 717,0 1260,543 174,543 174,936 1260,936 717,1481 1274,1481 2015,739 Z"/>
  </g>
  <g id="bullet-char-template-10007" transform="scale(0.00048828125,-0.00048828125)">
   <path d="M 0,-2 C -7,14 -16,27 -25,37 L 356,567 C 262,823 215,952 215,954 215,979 228,992 255,992 264,992 276,990 289,987 310,991 331,999 354,1012 L 381,999 492,748 772,1049 836,1024 860,1049 C 881,1039 901,1025 922,1006 886,937 835,863 770,784 769,783 710,716 594,584 L 774,223 C 774,196 753,168 711,139 L 727,119 C 717,90 699,76 672,76 641,76 570,178 457,381 L 164,-76 C 142,-110 111,-127 72,-127 30,-127 9,-110 8,-76 1,-67 -2,-52 -2,-32 -2,-23 -1,-13 0,-2 Z"/>
  </g>
  <g id="bullet-char-template-10004" transform="scale(0.00048828125,-0.00048828125)">
   <path d="M 285,-33 C 182,-33 111,30 74,156 52,228 41,333 41,471 41,549 55,616 82,672 116,743 169,778 240,778 293,778 328,747 346,684 L 369,508 C 377,444 397,411 428,410 L 1163,1116 C 1174,1127 1196,1133 1229,1133 1271,1133 1292,1118 1292,1087 L 1292,965 C 1292,929 1282,901 1262,881 L 442,47 C 390,-6 338,-33 285,-33 Z"/>
  </g>
  <g id="bullet-char-template-9679" transform="scale(0.00048828125,-0.00048828125)">
   <path d="M 813,0 C 632,0 489,54 383,161 276,268 223,411 223,592 223,773 276,916 383,1023 489,1130 632,1184 813,1184 992,1184 1136,1130 1245,1023 1353,916 1407,772 1407,592 1407,412 1353,268 1245,161 1136,54 992,0 813,0 Z"/>
  </g>
  <g id="bullet-char-template-8226" transform="scale(0.00048828125,-0.00048828125)">
   <path d="M 346,457 C 273,457 209,483 155,535 101,586 74,649 74,723 74,796 101,859 155,911 209,963 273,989 346,989 419,989 480,963 531,910 582,859 608,796 608,723 608,648 583,586 532,535 482,483 420,457 346,457 Z"/>
  </g>
  <g id="bullet-char-template-8211" transform="scale(0.00048828125,-0.00048828125)">
   <path d="M -4,459 L 1135,459 1135,606 -4,606 -4,459 Z"/>
  </g>
  <g id="bullet-char-template-61548" transform="scale(0.00048828125,-0.00048828125)">
   <path d="M 173,740 C 173,903 231,1043 346,1159 462,1274 601,1332 765,1332 928,1332 1067,1274 1183,1159 1299,1043 1357,903 1357,740 1357,577 1299,437 1183,322 1067,206 928,148 765,148 601,148 462,206 346,322 231,437 173,577 173,740 Z"/>
  </g>
 </defs>
 <g>
  <g id="id2" class="Master_Slide">
   <g id="bg-id2" class="Background"/>
   <g id="bo-id2" class="BackgroundObjects"/>
  </g>
 </g>
 <g class="SlideGroup">
  <g>
   <g id="container-id1">
    <g id="id1" class="Slide" clip-path="url(#presentation_clip_path)">
     <g class="Page">
      <g class="com.sun.star.drawing.CustomShape">
       <g id="id3">
        <rect class="BoundingBox" stroke="none" fill="none" x="2311" y="5570" width="6745" height="886"/>
        <path fill="rgb(0,0,0)" stroke="none" d="M 5683,6450 L 2312,6445 2311,5570 9054,5579 9055,6454 5683,6450 Z"/>
       </g>
      </g>
      <g class="com.sun.star.drawing.CustomShape">
       <g id="id4">
        <rect class="BoundingBox" stroke="none" fill="none" x="2764" y="6063" width="1260" height="1260"/>
        <path fill="rgb(0,0,0)" stroke="none" d="M 4022,6693 C 4022,6803 3993,6911 3938,7007 3883,7102 3803,7182 3708,7237 3612,7292 3504,7321 3394,7321 3283,7321 3175,7292 3079,7237 2984,7182 2904,7102 2849,7007 2794,6911 2765,6803 2765,6693 2765,6582 2794,6474 2849,6378 2904,6283 2984,6203 3079,6148 3175,6093 3283,6064 3393,6064 3504,6064 3612,6093 3708,6148 3803,6203 3883,6283 3938,6378 3993,6474 4022,6582 4022,6693 L 4022,6693 Z"/>
        <path fill="none" stroke="rgb(51,51,51)" d="M 4022,6693 C 4022,6803 3993,6911 3938,7007 3883,7102 3803,7182 3708,7237 3612,7292 3504,7321 3394,7321 3283,7321 3175,7292 3079,7237 2984,7182 2904,7102 2849,7007 2794,6911 2765,6803 2765,6693 2765,6582 2794,6474 2849,6378 2904,6283 2984,6203 3079,6148 3175,6093 3283,6064 3393,6064 3504,6064 3612,6093 3708,6148 3803,6203 3883,6283 3938,6378 3993,6474 4022,6582 4022,6693 L 4022,6693 Z"/>
       </g>
      </g>
      <g class="com.sun.star.drawing.CustomShape">
       <g id="id5">
        <rect class="BoundingBox" stroke="none" fill="none" x="3067" y="6371" width="659" height="658"/>
        <path fill="rgb(40,71,31)" stroke="none" d="M 3725,6699 C 3725,6757 3710,6814 3681,6864 3652,6914 3611,6955 3561,6984 3511,7013 3454,7028 3396,7028 3339,7028 3282,7013 3232,6984 3182,6955 3141,6914 3112,6864 3083,6814 3068,6757 3068,6699 3068,6642 3083,6585 3112,6535 3141,6485 3182,6444 3232,6415 3282,6386 3339,6371 3396,6371 3454,6371 3511,6386 3561,6415 3611,6444 3652,6485 3681,6535 3710,6585 3725,6642 3725,6699 L 3725,6699 Z"/>
       </g>
      </g>
      <g class="com.sun.star.drawing.CustomShape">
       <g id="id6">
        <rect class="BoundingBox" stroke="none" fill="none" x="6205" y="6064" width="1260" height="1260"/>
        <path fill="rgb(0,0,0)" stroke="none" d="M 7463,6694 C 7463,6804 7434,6912 7379,7008 7324,7103 7244,7183 7149,7238 7053,7293 6945,7322 6835,7322 6724,7322 6616,7293 6520,7238 6425,7183 6345,7103 6290,7008 6235,6912 6206,6804 6206,6694 6206,6583 6235,6475 6290,6379 6345,6284 6425,6204 6520,6149 6616,6094 6724,6065 6834,6065 6945,6065 7053,6094 7149,6149 7244,6204 7324,6284 7379,6379 7434,6475 7463,6583 7463,6693 L 7463,6694 Z"/>
        <path fill="none" stroke="rgb(51,51,51)" d="M 7463,6694 C 7463,6804 7434,6912 7379,7008 7324,7103 7244,7183 7149,7238 7053,7293 6945,7322 6835,7322 6724,7322 6616,7293 6520,7238 6425,7183 6345,7103 6290,7008 6235,6912 6206,6804 6206,6694 6206,6583 6235,6475 6290,6379 6345,6284 6425,6204 6520,6149 6616,6094 6724,6065 6834,6065 6945,6065 7053,6094 7149,6149 7244,6204 7324,6284 7379,6379 7434,6475 7463,6583 7463,6693 L 7463,6694 Z"/>
       </g>
      </g>
      <g class="com.sun.star.drawing.CustomShape">
       <g id="id7">
        <rect class="BoundingBox" stroke="none" fill="none" x="6509" y="6372" width="658" height="658"/>
        <path fill="rgb(40,71,31)" stroke="none" d="M 7166,6701 C 7166,6758 7151,6815 7122,6865 7093,6915 7052,6956 7002,6985 6952,7014 6895,7029 6838,7029 6780,7029 6723,7014 6673,6985 6623,6956 6582,6915 6553,6865 6524,6815 6509,6758 6509,6701 6509,6643 6524,6586 6553,6536 6582,6486 6623,6445 6673,6416 6723,6387 6780,6372 6838,6372 6895,6372 6952,6387 7002,6416 7052,6445 7093,6486 7122,6536 7151,6586 7166,6643 7166,6701 L 7166,6701 Z"/>
       </g>
      </g>
      <g class="com.sun.star.drawing.CustomShape">
       <g id="id8">
        <rect class="BoundingBox" stroke="none" fill="none" x="7629" y="6064" width="1260" height="1260"/>
        <path fill="rgb(0,0,0)" stroke="none" d="M 8887,6694 C 8887,6804 8858,6912 8803,7008 8748,7103 8668,7183 8573,7238 8477,7293 8369,7322 8259,7322 8148,7322 8040,7293 7944,7238 7849,7183 7769,7103 7714,7008 7659,6912 7630,6804 7630,6694 7630,6583 7659,6475 7714,6379 7769,6284 7849,6204 7944,6149 8040,6094 8148,6065 8259,6065 8369,6065 8477,6094 8573,6149 8668,6204 8748,6284 8803,6379 8858,6475 8887,6583 8887,6693 L 8887,6694 Z"/>
        <path fill="none" stroke="rgb(51,51,51)" d="M 8887,6694 C 8887,6804 8858,6912 8803,7008 8748,7103 8668,7183 8573,7238 8477,7293 8369,7322 8259,7322 8148,7322 8040,7293 7944,7238 7849,7183 7769,7103 7714,7008 7659,6912 7630,6804 7630,6694 7630,6583 7659,6475 7714,6379 7769,6284 7849,6204 7944,6149 8040,6094 8148,6065 8259,6065 8369,6065 8477,6094 8573,6149 8668,6204 8748,6284 8803,6379 8858,6475 8887,6583 8887,6693 L 8887,6694 Z"/>
       </g>
      </g>
      <g class="com.sun.star.drawing.CustomShape">
       <g id="id9">
        <rect class="BoundingBox" stroke="none" fill="none" x="7933" y="6372" width="658" height="658"/>
        <path fill="rgb(40,71,31)" stroke="none" d="M 8590,6701 C 8590,6758 8575,6815 8546,6865 8517,6915 8476,6956 8426,6985 8376,7014 8319,7029 8262,7029 8204,7029 8147,7014 8097,6985 8047,6956 8006,6915 7977,6865 7948,6815 7933,6758 7933,6701 7933,6643 7948,6586 7977,6536 8006,6486 8047,6445 8097,6416 8147,6387 8204,6372 8262,6372 8319,6372 8376,6387 8426,6416 8476,6445 8517,6486 8546,6536 8575,6586 8590,6643 8590,6701 L 8590,6701 Z"/>
       </g>
      </g>
      <g class="com.sun.star.drawing.CustomShape">
       <g id="id10">
        <rect class="BoundingBox" stroke="none" fill="none" x="2107" y="6026" width="613" height="621"/>
        <path fill="rgb(0,0,0)" stroke="none" d="M 2612,6544 L 2507,6645 2107,6229 2318,6026 2718,6442 2612,6544 Z"/>
       </g>
      </g>
      <g class="com.sun.star.drawing.CustomShape">
       <g id="id11">
        <rect class="BoundingBox" stroke="none" fill="none" x="2121" y="4986" width="1609" height="666"/>
        <path fill="rgb(4,26,2)" stroke="none" d="M 2925,5651 L 2121,5651 2121,4986 3729,4986 3729,5651 2925,5651 Z"/>
       </g>
      </g>
      <g class="com.sun.star.drawing.CustomShape">
       <g id="id12">
        <rect class="BoundingBox" stroke="none" fill="none" x="2115" y="5319" width="415" height="917"/>
        <path fill="rgb(51,51,51)" stroke="none" d="M 2322,6235 L 2115,6235 2115,5319 2529,5319 2529,6235 2322,6235 Z"/>
       </g>
      </g>
      <g class="com.sun.star.drawing.CustomShape">
       <g id="id13">
        <rect class="BoundingBox" stroke="none" fill="none" x="2309" y="6274" width="147" height="147"/>
        <path fill="rgb(255,255,0)" stroke="none" d="M 2454,6347 C 2454,6360 2451,6372 2444,6383 2438,6394 2429,6403 2418,6409 2407,6416 2395,6419 2382,6419 2369,6419 2357,6416 2346,6409 2335,6403 2326,6394 2320,6383 2313,6372 2310,6360 2310,6347 2310,6334 2313,6322 2320,6311 2326,6300 2335,6291 2346,6285 2357,6278 2369,6275 2382,6275 2395,6275 2407,6278 2418,6285 2429,6291 2438,6300 2444,6311 2451,6322 2454,6334 2454,6347 L 2454,6347 Z"/>
        <path fill="none" stroke="rgb(255,255,0)" d="M 2454,6347 C 2454,6360 2451,6372 2444,6383 2438,6394 2429,6403 2418,6409 2407,6416 2395,6419 2382,6419 2369,6419 2357,6416 2346,6409 2335,6403 2326,6394 2320,6383 2313,6372 2310,6360 2310,6347 2310,6334 2313,6322 2320,6311 2326,6300 2335,6291 2346,6285 2357,6278 2369,6275 2382,6275 2395,6275 2407,6278 2418,6285 2429,6291 2438,6300 2444,6311 2451,6322 2454,6334 2454,6347 Z"/>
       </g>
      </g>
      <g class="com.sun.star.drawing.CustomShape">
       <g id="id14">
        <rect class="BoundingBox" stroke="none" fill="none" x="2526" y="6227" width="147" height="147"/>
        <path fill="rgb(255,255,215)" stroke="none" d="M 2671,6300 C 2671,6313 2668,6325 2661,6336 2655,6347 2646,6356 2635,6362 2624,6369 2612,6372 2599,6372 2586,6372 2574,6369 2563,6362 2552,6356 2543,6347 2537,6336 2530,6325 2527,6313 2527,6300 2527,6287 2530,6275 2537,6264 2543,6253 2552,6244 2563,6238 2574,6231 2586,6228 2599,6228 2612,6228 2624,6231 2635,6238 2646,6244 2655,6253 2661,6264 2668,6275 2671,6287 2671,6300 L 2671,6300 Z"/>
        <path fill="none" stroke="rgb(255,255,215)" d="M 2671,6300 C 2671,6313 2668,6325 2661,6336 2655,6347 2646,6356 2635,6362 2624,6369 2612,6372 2599,6372 2586,6372 2574,6369 2563,6362 2552,6356 2543,6347 2537,6336 2530,6325 2527,6313 2527,6300 2527,6287 2530,6275 2537,6264 2543,6253 2552,6244 2563,6238 2574,6231 2586,6228 2599,6228 2612,6228 2624,6231 2635,6238 2646,6244 2655,6253 2661,6264 2668,6275 2671,6287 2671,6300 Z"/>
       </g>
      </g>
      <g class="com.sun.star.drawing.CustomShape">
       <g id="id15">
        <rect class="BoundingBox" stroke="none" fill="none" x="2125" y="4062" width="1029" height="1196"/>
        <path fill="rgb(4,26,2)" stroke="none" d="M 2456,5127 L 2126,4998 2492,4063 3152,4321 2786,5256 2456,5127 Z"/>
        <path fill="none" stroke="rgb(0,0,0)" d="M 2456,5127 L 2126,4998 2492,4063 3152,4321 2786,5256 2456,5127 Z"/>
       </g>
      </g>
      <g class="com.sun.star.drawing.CustomShape">
       <g id="id16">
        <rect class="BoundingBox" stroke="none" fill="none" x="2481" y="4070" width="1249" height="998"/>
        <path fill="rgb(4,26,2)" stroke="none" d="M 3105,5067 L 2481,5067 2481,4070 3729,4070 3729,5067 3105,5067 Z"/>
       </g>
      </g>
      <g class="com.sun.star.drawing.CustomShape">
       <g id="id17">
        <rect class="BoundingBox" stroke="none" fill="none" x="2243" y="4138" width="546" height="818"/>
        <path fill="rgb(114,159,207)" stroke="none" d="M 2569,4139 L 2787,4139 2461,4954 2244,4954 2569,4139 Z"/>
        <path fill="none" stroke="rgb(52,101,164)" d="M 2569,4139 L 2787,4139 2461,4954 2244,4954 2569,4139 Z"/>
       </g>
      </g>
      <g class="com.sun.star.drawing.CustomShape">
       <g id="id18">
        <rect class="BoundingBox" stroke="none" fill="none" x="2819" y="4145" width="295" height="803"/>
        <path fill="rgb(114,159,207)" stroke="none" d="M 2966,4946 L 2820,4946 2820,4146 3112,4146 3112,4946 2966,4946 Z"/>
        <path fill="none" stroke="rgb(52,101,164)" d="M 2966,4946 L 2820,4946 2820,4146 3112,4146 3112,4946 2966,4946 Z"/>
       </g>
      </g>
      <g class="com.sun.star.drawing.LineShape">
       <g id="id19">
        <rect class="BoundingBox" stroke="none" fill="none" x="2824" y="4947" width="3" height="903"/>
        <path fill="none" stroke="rgb(51,51,51)" d="M 2825,4948 L 2825,5848"/>
       </g>
      </g>
      <g class="com.sun.star.drawing.LineShape">
       <g id="id20">
        <rect class="BoundingBox" stroke="none" fill="none" x="2819" y="5851" width="524" height="5"/>
        <path fill="none" stroke="rgb(51,51,51)" d="M 2820,5852 L 3341,5854"/>
       </g>
      </g>
      <g class="com.sun.star.drawing.LineShape">
       <g id="id21">
        <rect class="BoundingBox" stroke="none" fill="none" x="3309" y="4152" width="20" height="1704"/>
        <path fill="none" stroke="rgb(51,51,51)" d="M 3310,4153 L 3327,5854"/>
       </g>
      </g>
      <g class="com.sun.star.drawing.LineShape">
       <g id="id22">
        <rect class="BoundingBox" stroke="none" fill="none" x="3113" y="4145" width="196" height="15"/>
        <path fill="none" stroke="rgb(51,51,51)" d="M 3114,4146 L 3307,4158"/>
       </g>
      </g>
      <g class="com.sun.star.drawing.CustomShape">
       <g id="id23">
        <rect class="BoundingBox" stroke="none" fill="none" x="3918" y="3682" width="5457" height="2083"/>
        <path fill="rgb(4,26,2)" stroke="none" d="M 6646,5763 L 3919,5763 3919,3683 9373,3683 9373,5763 6646,5763 Z"/>
        <path fill="none" stroke="rgb(52,42,6)" d="M 6646,5763 L 3919,5763 3919,3683 9373,3683 9373,5763 6646,5763 Z"/>
       </g>
      </g>
      <g class="com.sun.star.drawing.CustomShape">
       <g id="id24">
        <rect class="BoundingBox" stroke="none" fill="none" x="4142" y="4513" width="3244" height="1055"/>
        <path fill="rgb(27,21,0)" stroke="none" d="M 7385,5040 C 7385,5132 7310,5223 7168,5303 7025,5383 6821,5449 6574,5495 6328,5542 6048,5566 5764,5566 5479,5566 5199,5542 4953,5495 4706,5449 4502,5383 4359,5303 4217,5223 4142,5132 4142,5040 4142,4947 4217,4856 4359,4776 4502,4696 4706,4630 4953,4584 5199,4537 5479,4513 5763,4513 6048,4513 6328,4537 6574,4584 6821,4630 7025,4696 7168,4776 7310,4856 7385,4947 7385,5040 L 7385,5040 Z"/>
       </g>
      </g>
      <g class="com.sun.star.drawing.CustomShape">
       <g id="id25">
        <rect class="BoundingBox" stroke="none" fill="none" x="5941" y="3846" width="3308" height="1054"/>
        <path fill="rgb(27,21,0)" stroke="none" d="M 9248,4373 C 9248,4465 9172,4556 9026,4636 8881,4716 8673,4782 8421,4828 8170,4875 7885,4899 7594,4899 7304,4899 7019,4875 6768,4828 6516,4782 6308,4716 6163,4636 6017,4556 5941,4465 5941,4373 5941,4280 6017,4189 6163,4109 6308,4029 6516,3963 6768,3917 7019,3870 7304,3846 7594,3846 7885,3846 8170,3870 8421,3917 8673,3963 8881,4029 9026,4109 9172,4189 9248,4280 9248,4373 L 9248,4373 Z"/>
       </g>
      </g>
      <g class="com.sun.star.drawing.CustomShape">
       <g id="id26">
        <rect class="BoundingBox" stroke="none" fill="none" x="5930" y="4963" width="3308" height="605"/>
        <path fill="rgb(17,17,17)" stroke="none" d="M 9237,5265 C 9237,5318 9161,5370 9015,5416 8870,5462 8662,5500 8410,5527 8159,5553 7874,5567 7584,5567 7293,5567 7008,5553 6757,5527 6505,5500 6297,5462 6152,5416 6006,5370 5930,5318 5930,5265 5930,5212 6006,5160 6152,5114 6297,5068 6505,5030 6757,5003 7008,4977 7293,4963 7583,4963 7874,4963 8159,4977 8410,5003 8662,5030 8870,5068 9015,5114 9161,5160 9237,5212 9237,5265 L 9237,5265 Z"/>
       </g>
      </g>
      <g class="com.sun.star.drawing.CustomShape">
       <g id="id27">
        <rect class="BoundingBox" stroke="none" fill="none" x="4178" y="3755" width="3130" height="1150"/>
        <path fill="rgb(17,17,17)" stroke="none" d="M 7305,3789 C 7317,3822 7256,3880 7129,3957 7002,4034 6813,4126 6582,4225 6350,4325 6083,4427 5809,4522 5535,4617 5262,4701 5019,4766 4776,4832 4570,4876 4423,4894 4275,4912 4192,4904 4180,4870 4168,4836 4229,4778 4356,4701 4483,4625 4672,4532 4904,4433 5135,4334 5402,4232 5676,4137 5950,4042 6223,3958 6466,3892 6710,3827 6915,3783 7063,3765 7210,3747 7294,3755 7305,3789 L 7305,3789 Z"/>
       </g>
      </g>
      <g class="com.sun.star.drawing.CustomShape">
       <g id="id28">
        <rect class="BoundingBox" stroke="none" fill="none" x="4014" y="3921" width="3274" height="775"/>
        <path fill="rgb(35,18,1)" stroke="none" d="M 7286,4553 C 7278,4606 7195,4646 7044,4670 6894,4694 6682,4700 6429,4689 6177,4678 5893,4650 5606,4607 5319,4564 5039,4508 4794,4444 4549,4381 4349,4312 4212,4245 4075,4178 4007,4115 4015,4063 4023,4010 4106,3970 4257,3946 4407,3922 4619,3916 4872,3927 5124,3938 5408,3966 5695,4009 5982,4052 6262,4109 6507,4172 6752,4236 6952,4304 7089,4371 7226,4438 7294,4501 7286,4553 L 7286,4553 Z"/>
       </g>
      </g>
      <g class="com.sun.star.drawing.CustomShape">
       <g id="id29">
        <rect class="BoundingBox" stroke="none" fill="none" x="6232" y="3945" width="2909" height="1587"/>
        <path fill="rgb(35,18,1)" stroke="none" d="M 9139,3949 C 9145,3961 9085,4010 8963,4090 8841,4170 8663,4278 8445,4405 8228,4531 7979,4670 7724,4809 7469,4948 7217,5080 6993,5194 6768,5308 6580,5399 6447,5457 6313,5516 6240,5540 6233,5528 6226,5515 6287,5467 6408,5387 6530,5307 6708,5198 6926,5072 7143,4945 7392,4806 7647,4667 7902,4529 8155,4396 8379,4282 8603,4168 8791,4078 8925,4019 9058,3961 9132,3936 9139,3949 L 9139,3949 Z"/>
       </g>
      </g>
      <g class="com.sun.star.drawing.CustomShape">
       <g id="id30">
        <rect class="BoundingBox" stroke="none" fill="none" x="4311" y="3701" width="151" height="2027"/>
        <path fill="rgb(17,17,17)" stroke="none" d="M 4386,5727 L 4311,5727 4311,3701 4461,3701 4461,5727 4386,5727 Z"/>
       </g>
      </g>
      <g class="com.sun.star.drawing.CustomShape">
       <g id="id31">
        <rect class="BoundingBox" stroke="none" fill="none" x="4732" y="3719" width="151" height="2027"/>
        <path fill="rgb(17,17,17)" stroke="none" d="M 4807,5745 L 4732,5745 4732,3719 4882,3719 4882,5745 4807,5745 Z"/>
       </g>
      </g>
      <g class="com.sun.star.drawing.CustomShape">
       <g id="id32">
        <rect class="BoundingBox" stroke="none" fill="none" x="5148" y="3713" width="151" height="2027"/>
        <path fill="rgb(17,17,17)" stroke="none" d="M 5223,5739 L 5148,5739 5148,3713 5298,3713 5298,5739 5223,5739 Z"/>
       </g>
      </g>
      <g class="com.sun.star.drawing.CustomShape">
       <g id="id33">
        <rect class="BoundingBox" stroke="none" fill="none" x="5569" y="3731" width="151" height="2027"/>
        <path fill="rgb(17,17,17)" stroke="none" d="M 5644,5757 L 5569,5757 5569,3731 5719,3731 5719,5757 5644,5757 Z"/>
       </g>
      </g>
      <g class="com.sun.star.drawing.CustomShape">
       <g id="id34">
        <rect class="BoundingBox" stroke="none" fill="none" x="6009" y="3689" width="151" height="2027"/>
        <path fill="rgb(17,17,17)" stroke="none" d="M 6084,5715 L 6009,5715 6009,3689 6159,3689 6159,5715 6084,5715 Z"/>
       </g>
      </g>
      <g class="com.sun.star.drawing.CustomShape">
       <g id="id35">
        <rect class="BoundingBox" stroke="none" fill="none" x="6430" y="3707" width="151" height="2027"/>
        <path fill="rgb(17,17,17)" stroke="none" d="M 6505,5733 L 6430,5733 6430,3707 6580,3707 6580,5733 6505,5733 Z"/>
       </g>
      </g>
      <g class="com.sun.star.drawing.CustomShape">
       <g id="id36">
        <rect class="BoundingBox" stroke="none" fill="none" x="6846" y="3701" width="151" height="2027"/>
        <path fill="rgb(17,17,17)" stroke="none" d="M 6921,5727 L 6846,5727 6846,3701 6996,3701 6996,5727 6921,5727 Z"/>
       </g>
      </g>
      <g class="com.sun.star.drawing.CustomShape">
       <g id="id37">
        <rect class="BoundingBox" stroke="none" fill="none" x="7267" y="3719" width="151" height="2027"/>
        <path fill="rgb(17,17,17)" stroke="none" d="M 7342,5745 L 7267,5745 7267,3719 7417,3719 7417,5745 7342,5745 Z"/>
       </g>
      </g>
      <g class="com.sun.star.drawing.CustomShape">
       <g id="id38">
        <rect class="BoundingBox" stroke="none" fill="none" x="7709" y="3689" width="151" height="2027"/>
        <path fill="rgb(17,17,17)" stroke="none" d="M 7784,5715 L 7709,5715 7709,3689 7859,3689 7859,5715 7784,5715 Z"/>
       </g>
      </g>
      <g class="com.sun.star.drawing.CustomShape">
       <g id="id39">
        <rect class="BoundingBox" stroke="none" fill="none" x="8130" y="3707" width="151" height="2027"/>
        <path fill="rgb(17,17,17)" stroke="none" d="M 8205,5733 L 8130,5733 8130,3707 8280,3707 8280,5733 8205,5733 Z"/>
       </g>
      </g>
      <g class="com.sun.star.drawing.CustomShape">
       <g id="id40">
        <rect class="BoundingBox" stroke="none" fill="none" x="8546" y="3701" width="151" height="2027"/>
        <path fill="rgb(17,17,17)" stroke="none" d="M 8621,5727 L 8546,5727 8546,3701 8696,3701 8696,5727 8621,5727 Z"/>
       </g>
      </g>
      <g class="com.sun.star.drawing.CustomShape">
       <g id="id41">
        <rect class="BoundingBox" stroke="none" fill="none" x="8967" y="3719" width="151" height="2027"/>
        <path fill="rgb(17,17,17)" stroke="none" d="M 9042,5745 L 8967,5745 8967,3719 9117,3719 9117,5745 9042,5745 Z"/>
       </g>
      </g>
      <g class="com.sun.star.drawing.CustomShape">
       <g id="id42">
        <rect class="BoundingBox" stroke="none" fill="none" x="3661" y="3399" width="151" height="2430"/>
        <path fill="rgb(17,17,17)" stroke="none" d="M 3736,5828 L 3661,5828 3661,3399 3811,3399 3811,5828 3736,5828 Z"/>
       </g>
      </g>
      <g class="com.sun.star.drawing.CustomShape">
       <g id="id43">
        <rect class="BoundingBox" stroke="none" fill="none" x="4255" y="6104" width="1423" height="550"/>
        <path fill="rgb(35,18,1)" stroke="none" d="M 4966,6652 L 4256,6652 4256,6105 5676,6105 5676,6652 4966,6652 Z"/>
        <path fill="none" stroke="rgb(52,42,6)" d="M 4966,6652 L 4256,6652 4256,6105 5676,6105 5676,6652 4966,6652 Z"/>
       </g>
      </g>
     </g>
    </g>
   </g>
  </g>
 </g>
</svg>