<?xml version="1.0" encoding="UTF-8"?>
<!DOCTYPE svg PUBLIC "-//W3C//DTD SVG 1.1//EN" "http://www.w3.org/Graphics/SVG/1.1/DTD/svg11.dtd">
<svg version="1.2" width="76.2mm" height="50.8mm" viewBox="0 0 7620 5080" preserveAspectRatio="xMidYMid" fill-rule="evenodd" stroke-width="28.222" stroke-linejoin="round" xmlns="http://www.w3.org/2000/svg" xmlns:ooo="http://xml.openoffice.org/svg/export" xmlns:xlink="http://www.w3.org/1999/xlink" xmlns:presentation="http://sun.com/xmlns/staroffice/presentation" xmlns:smil="http://www.w3.org/2001/SMIL20/" xmlns:anim="urn:oasis:names:tc:opendocument:xmlns:animation:1.0" xml:space="preserve">
 <defs class="ClipPathGroup">
  <clipPath id="presentation_clip_path" clipPathUnits="userSpaceOnUse">
   <rect x="0" y="0" width="7620" height="5080"/>
  </clipPath>
  <clipPath id="presentation_clip_path_shrink" clipPathUnits="userSpaceOnUse">
   <rect x="7" y="5" width="7605" height="5070"/>
  </clipPath>
 </defs>
 <defs class="TextShapeIndex">
  <g ooo:slide="id1" ooo:id-list="id3 id4 id5 id6 id7 id8 id9 id10 id11 id12 id13 id14 id15 id16 id17 id18 id19 id20 id21 id22 id23 id24 id25 id26 id27 id28 id29 id30 id31 id32 id33 id34 id35 id36 id37"/>
 </defs>
 <defs class="EmbeddedBulletChars">
  <g id="bullet-char-template-57356" transform="scale(0.00048828125,-0.00048828125)">
   <path d="M 580,1141 L 1163,571 580,0 -4,571 580,1141 Z"/>
  </g>
  <g id="bullet-char-template-57354" transform="scale(0.00048828125,-0.00048828125)">
   <path d="M 8,1128 L 1137,1128 1137,0 8,0 8,1128 Z"/>
  </g>
  <g id="bullet-char-template-10146" transform="scale(0.00048828125,-0.00048828125)">
   <path d="M 174,0 L 602,739 174,1481 1456,739 174,0 Z M 1358,739 L 309,1346 659,739 1358,739 Z"/>
  </g>
  <g id="bullet-char-template-10132" transform="scale(0.00048828125,-0.00048828125)">
   <path d="M 2015,739 L 1276,0 717,0 1260,543 174,543 174,936 1260,936 717,1481 1274,1481 2015,739 Z"/>
  </g>
  <g id="bullet-char-template-10007" transform="scale(0.00048828125,-0.00048828125)">
   <path d="M 0,-2 C -7,14 -16,27 -25,37 L 356,567 C 262,823 215,952 215,954 215,979 228,992 255,992 264,992 276,990 289,987 310,991 331,999 354,1012 L 381,999 492,748 772,1049 836,1024 860,1049 C 881,1039 901,1025 922,1006 886,937 835,863 770,784 769,783 710,716 594,584 L 774,223 C 774,196 753,168 711,139 L 727,119 C 717,90 699,76 672,76 641,76 570,178 457,381 L 164,-76 C 142,-110 111,-127 72,-127 30,-127 9,-110 8,-76 1,-67 -2,-52 -2,-32 -2,-23 -1,-13 0,-2 Z"/>
  </g>
  <g id="bullet-char-template-10004" transform="scale(0.00048828125,-0.00048828125)">
   <path d="M 285,-33 C 182,-33 111,30 74,156 52,228 41,333 41,471 41,549 55,616 82,672 116,743 169,778 240,778 293,778 328,747 346,684 L 369,508 C 377,444 397,411 428,410 L 1163,1116 C 1174,1127 1196,1133 1229,1133 1271,1133 1292,1118 1292,1087 L 1292,965 C 1292,929 1282,901 1262,881 L 442,47 C 390,-6 338,-33 285,-33 Z"/>
  </g>
  <g id="bullet-char-template-9679" transform="scale(0.00048828125,-0.00048828125)">
   <path d="M 813,0 C 632,0 489,54 383,161 276,268 223,411 223,592 223,773 276,916 383,1023 489,1130 632,1184 813,1184 992,1184 1136,1130 1245,1023 1353,916 1407,772 1407,592 1407,412 1353,268 1245,161 1136,54 992,0 813,0 Z"/>
  </g>
  <g id="bullet-char-template-8226" transform="scale(0.00048828125,-0.00048828125)">
   <path d="M 346,457 C 273,457 209,483 155,535 101,586 74,649 74,723 74,796 101,859 155,911 209,963 273,989 346,989 419,989 480,963 531,910 582,859 608,796 608,723 608,648 583,586 532,535 482,483 420,457 346,457 Z"/>
  </g>
  <g id="bullet-char-template-8211" transform="scale(0.00048828125,-0.00048828125)">
   <path d="M -4,459 L 1135,459 1135,606 -4,606 -4,459 Z"/>
  </g>
  <g id="bullet-char-template-61548" transform="scale(0.00048828125,-0.00048828125)">
   <path d="M 173,740 C 173,903 231,1043 346,1159 462,1274 601,1332 765,1332 928,1332 1067,1274 1183,1159 1299,1043 1357,903 1357,740 1357,577 1299,437 1183,322 1067,206 928,148 765,148 601,148 462,206 346,322 231,437 173,577 173,740 Z"/>
  </g>
 </defs>
 <g>
  <g id="id2" class="Master_Slide">
   <g id="bg-id2" class="Background"/>
   <g id="bo-id2" class="BackgroundObjects"/>
  </g>
 </g>
 <g class="SlideGroup">
  <g>
   <g id="container-id1">
    <g id="id1" class="Slide" clip-path="url(#presentation_clip_path)">
     <g class="Page">
      <g class="com.sun.star.drawing.CustomShape">
       <g id="id3">
        <rect class="BoundingBox" stroke="none" fill="none" x="148" y="1826" width="257" height="1300"/>
        <path fill="rgb(178,178,178)" stroke="none" d="M 390,2476 C 390,2587 385,2697 375,2793 365,2890 350,2970 333,3026 316,3082 296,3111 276,3111 256,3111 236,3082 219,3026 202,2970 187,2890 177,2793 167,2697 162,2587 162,2476 162,2364 167,2254 177,2158 187,2061 202,1981 219,1925 236,1869 256,1840 276,1840 296,1840 316,1869 333,1925 350,1981 365,2061 375,2158 385,2254 390,2364 390,2475 L 390,2476 Z"/>
        <path fill="none" stroke="rgb(255,255,0)" stroke-width="28" stroke-linejoin="round" d="M 390,2476 C 390,2587 385,2697 375,2793 365,2890 350,2970 333,3026 316,3082 296,3111 276,3111 256,3111 236,3082 219,3026 202,2970 187,2890 177,2793 167,2697 162,2587 162,2476 162,2364 167,2254 177,2158 187,2061 202,1981 219,1925 236,1869 256,1840 276,1840 296,1840 316,1869 333,1925 350,1981 365,2061 375,2158 385,2254 390,2364 390,2475 L 390,2476 Z"/>
       </g>
      </g>
      <g class="com.sun.star.drawing.CustomShape">
       <g id="id4">
        <rect class="BoundingBox" stroke="none" fill="none" x="271" y="2348" width="6859" height="255"/>
        <path fill="rgb(42,96,153)" stroke="none" d="M 3700,2602 L 271,2602 271,2348 7129,2348 7129,2602 3700,2602 Z"/>
       </g>
      </g>
      <g class="com.sun.star.drawing.CustomShape">
       <g id="id5">
        <rect class="BoundingBox" stroke="none" fill="none" x="3693" y="2598" width="3432" height="383"/>
        <path fill="rgb(42,96,153)" stroke="none" d="M 3693,2980 L 7123,2598 3693,2598 3693,2980 3693,2980 Z"/>
       </g>
      </g>
      <g class="com.sun.star.drawing.CustomShape">
       <g id="id6">
        <rect class="BoundingBox" stroke="none" fill="none" x="398" y="2601" width="3303" height="382"/>
        <path fill="rgb(42,96,153)" stroke="none" d="M 2049,2982 L 398,2982 398,2601 3700,2601 3700,2982 2049,2982 Z"/>
       </g>
      </g>
      <g class="com.sun.star.drawing.CustomShape">
       <g id="id7">
        <rect class="BoundingBox" stroke="none" fill="none" x="267" y="2599" width="176" height="383"/>
        <path fill="rgb(42,96,153)" stroke="none" d="M 442,2981 L 268,2599 442,2599 442,2981 442,2981 Z"/>
       </g>
      </g>
      <g class="com.sun.star.drawing.CustomShape">
       <g id="id8">
        <rect class="BoundingBox" stroke="none" fill="none" x="1078" y="3263" width="258" height="258"/>
        <path fill="rgb(0,0,0)" stroke="none" d="M 1334,3391 C 1334,3414 1328,3436 1317,3455 1306,3475 1290,3491 1270,3502 1251,3513 1229,3519 1207,3519 1184,3519 1162,3513 1143,3502 1123,3491 1107,3475 1096,3455 1085,3436 1079,3414 1079,3391 1079,3369 1085,3347 1096,3328 1107,3308 1123,3292 1143,3281 1162,3270 1184,3264 1207,3264 1229,3264 1251,3270 1270,3281 1290,3292 1306,3308 1317,3328 1328,3347 1334,3369 1334,3391 L 1334,3391 Z"/>
        <path fill="none" stroke="rgb(0,0,0)" d="M 1334,3391 C 1334,3414 1328,3436 1317,3455 1306,3475 1290,3491 1270,3502 1251,3513 1229,3519 1207,3519 1184,3519 1162,3513 1143,3502 1123,3491 1107,3475 1096,3455 1085,3436 1079,3414 1079,3391 1079,3369 1085,3347 1096,3328 1107,3308 1123,3292 1143,3281 1162,3270 1184,3264 1207,3264 1229,3264 1251,3270 1270,3281 1290,3292 1306,3308 1317,3328 1328,3347 1334,3369 1334,3391 Z"/>
       </g>
      </g>
      <g class="com.sun.star.drawing.CustomShape">
       <g id="id9">
        <rect class="BoundingBox" stroke="none" fill="none" x="1005" y="3262" width="385" height="131"/>
        <path fill="rgb(42,96,153)" stroke="none" d="M 1388,3327 C 1388,3338 1379,3349 1362,3359 1346,3369 1322,3377 1293,3382 1263,3388 1231,3391 1197,3391 1163,3391 1131,3388 1102,3382 1072,3377 1048,3369 1032,3359 1015,3349 1006,3338 1006,3327 1006,3316 1015,3305 1032,3295 1048,3285 1072,3277 1101,3272 1131,3266 1163,3263 1197,3263 1231,3263 1263,3266 1293,3272 1322,3277 1346,3285 1362,3295 1379,3305 1388,3316 1388,3327 L 1388,3327 Z"/>
        <path fill="none" stroke="rgb(0,0,0)" d="M 1388,3327 C 1388,3338 1379,3349 1362,3359 1346,3369 1322,3377 1293,3382 1263,3388 1231,3391 1197,3391 1163,3391 1131,3388 1102,3382 1072,3377 1048,3369 1032,3359 1015,3349 1006,3338 1006,3327 1006,3316 1015,3305 1032,3295 1048,3285 1072,3277 1101,3272 1131,3266 1163,3263 1197,3263 1231,3263 1263,3266 1293,3272 1322,3277 1346,3285 1362,3295 1379,3305 1388,3316 1388,3327 Z"/>
       </g>
      </g>
      <g class="com.sun.star.drawing.CustomShape">
       <g id="id10">
        <rect class="BoundingBox" stroke="none" fill="none" x="2264" y="3390" width="258" height="258"/>
        <path fill="rgb(0,0,0)" stroke="none" d="M 2520,3518 C 2520,3541 2514,3563 2503,3582 2492,3602 2476,3618 2456,3629 2437,3640 2415,3646 2393,3646 2370,3646 2348,3640 2329,3629 2309,3618 2293,3602 2282,3582 2271,3563 2265,3541 2265,3518 2265,3496 2271,3474 2282,3455 2293,3435 2309,3419 2329,3408 2348,3397 2370,3391 2393,3391 2415,3391 2437,3397 2456,3408 2476,3419 2492,3435 2503,3455 2514,3474 2520,3496 2520,3518 L 2520,3518 Z"/>
        <path fill="none" stroke="rgb(0,0,0)" d="M 2520,3518 C 2520,3541 2514,3563 2503,3582 2492,3602 2476,3618 2456,3629 2437,3640 2415,3646 2393,3646 2370,3646 2348,3640 2329,3629 2309,3618 2293,3602 2282,3582 2271,3563 2265,3541 2265,3518 2265,3496 2271,3474 2282,3455 2293,3435 2309,3419 2329,3408 2348,3397 2370,3391 2393,3391 2415,3391 2437,3397 2456,3408 2476,3419 2492,3435 2503,3455 2514,3474 2520,3496 2520,3518 Z"/>
       </g>
      </g>
      <g class="com.sun.star.drawing.CustomShape">
       <g id="id11">
        <rect class="BoundingBox" stroke="none" fill="none" x="2179" y="3385" width="385" height="131"/>
        <path fill="rgb(42,96,153)" stroke="none" d="M 2562,3450 C 2562,3461 2553,3472 2536,3482 2520,3492 2496,3500 2467,3505 2437,3511 2405,3514 2371,3514 2337,3514 2305,3511 2276,3505 2246,3500 2222,3492 2206,3482 2189,3472 2180,3461 2180,3450 2180,3439 2189,3428 2206,3418 2222,3408 2246,3400 2276,3395 2305,3389 2337,3386 2371,3386 2405,3386 2437,3389 2467,3395 2496,3400 2520,3408 2536,3418 2553,3428 2562,3439 2562,3450 L 2562,3450 Z"/>
        <path fill="none" stroke="rgb(0,0,0)" d="M 2562,3450 C 2562,3461 2553,3472 2536,3482 2520,3492 2496,3500 2467,3505 2437,3511 2405,3514 2371,3514 2337,3514 2305,3511 2276,3505 2246,3500 2222,3492 2206,3482 2189,3472 2180,3461 2180,3450 2180,3439 2189,3428 2206,3418 2222,3408 2246,3400 2276,3395 2305,3389 2337,3386 2371,3386 2405,3386 2437,3389 2467,3395 2496,3400 2520,3408 2536,3418 2553,3428 2562,3439 2562,3450 Z"/>
       </g>
      </g>
      <g class="com.sun.star.drawing.CustomShape">
       <g id="id12">
        <rect class="BoundingBox" stroke="none" fill="none" x="2591" y="3236" width="258" height="258"/>
        <path fill="rgb(0,0,0)" stroke="none" d="M 2847,3365 C 2847,3387 2841,3409 2830,3428 2819,3448 2803,3464 2783,3475 2764,3486 2742,3492 2720,3492 2697,3492 2675,3486 2656,3475 2636,3464 2620,3448 2609,3428 2598,3409 2592,3387 2592,3365 2592,3342 2598,3320 2609,3301 2620,3281 2636,3265 2656,3254 2675,3243 2697,3237 2720,3237 2742,3237 2764,3243 2783,3254 2803,3265 2819,3281 2830,3301 2841,3320 2847,3342 2847,3365 L 2847,3365 Z"/>
        <path fill="none" stroke="rgb(0,0,0)" d="M 2847,3365 C 2847,3387 2841,3409 2830,3428 2819,3448 2803,3464 2783,3475 2764,3486 2742,3492 2720,3492 2697,3492 2675,3486 2656,3475 2636,3464 2620,3448 2609,3428 2598,3409 2592,3387 2592,3365 2592,3342 2598,3320 2609,3301 2620,3281 2636,3265 2656,3254 2675,3243 2697,3237 2720,3237 2742,3237 2764,3243 2783,3254 2803,3265 2819,3281 2830,3301 2841,3320 2847,3342 2847,3365 Z"/>
       </g>
      </g>
      <g class="com.sun.star.drawing.CustomShape">
       <g id="id13">
        <rect class="BoundingBox" stroke="none" fill="none" x="2541" y="3227" width="385" height="131"/>
        <path fill="rgb(42,96,153)" stroke="none" d="M 2924,3292 C 2924,3303 2915,3314 2898,3324 2882,3334 2858,3342 2829,3347 2799,3353 2767,3356 2733,3356 2699,3356 2667,3353 2638,3347 2608,3342 2584,3334 2568,3324 2551,3314 2542,3303 2542,3292 2542,3281 2551,3270 2568,3260 2584,3250 2608,3242 2638,3237 2667,3231 2699,3228 2733,3228 2767,3228 2799,3231 2829,3237 2858,3242 2882,3250 2898,3260 2915,3270 2924,3281 2924,3292 L 2924,3292 Z"/>
        <path fill="none" stroke="rgb(0,0,0)" d="M 2924,3292 C 2924,3303 2915,3314 2898,3324 2882,3334 2858,3342 2829,3347 2799,3353 2767,3356 2733,3356 2699,3356 2667,3353 2638,3347 2608,3342 2584,3334 2568,3324 2551,3314 2542,3303 2542,3292 2542,3281 2551,3270 2568,3260 2584,3250 2608,3242 2638,3237 2667,3231 2699,3228 2733,3228 2767,3228 2799,3231 2829,3237 2858,3242 2882,3250 2898,3260 2915,3270 2924,3281 2924,3292 Z"/>
       </g>
      </g>
      <g class="com.sun.star.drawing.LineShape">
       <g id="id14">
        <rect class="BoundingBox" stroke="none" fill="none" x="1179" y="2729" width="55" height="563"/>
        <path fill="none" stroke="rgb(42,96,153)" stroke-width="53" stroke-linejoin="round" d="M 1206,3264 L 1206,2756"/>
       </g>
      </g>
      <g class="com.sun.star.drawing.LineShape">
       <g id="id15">
        <rect class="BoundingBox" stroke="none" fill="none" x="2534" y="2872" width="313" height="493"/>
        <path fill="none" stroke="rgb(42,96,153)" stroke-width="53" stroke-linejoin="round" d="M 2819,3337 L 2561,2899"/>
       </g>
      </g>
      <g class="com.sun.star.drawing.LineShape">
       <g id="id16">
        <rect class="BoundingBox" stroke="none" fill="none" x="2348" y="2929" width="146" height="555"/>
        <path fill="none" stroke="rgb(42,96,153)" stroke-width="53" stroke-linejoin="round" d="M 2375,3456 L 2466,2956"/>
       </g>
      </g>
      <g class="com.sun.star.drawing.CustomShape">
       <g id="id17">
        <rect class="BoundingBox" stroke="none" fill="none" x="271" y="1954" width="927" height="398"/>
        <path fill="rgb(42,96,153)" stroke="none" d="M 1197,1954 L 271,2351 1197,2351 1197,1954 1197,1954 Z"/>
       </g>
      </g>
      <g class="com.sun.star.drawing.CustomShape">
       <g id="id18">
        <rect class="BoundingBox" stroke="none" fill="none" x="1161" y="1590" width="256" height="384"/>
        <path fill="rgb(42,96,153)" stroke="none" d="M 1416,1590 L 1161,1972 1416,1972 1416,1590 1416,1590 Z"/>
       </g>
      </g>
      <g class="com.sun.star.drawing.CustomShape">
       <g id="id19">
        <rect class="BoundingBox" stroke="none" fill="none" x="1414" y="1586" width="1271" height="763"/>
        <path fill="rgb(42,96,153)" stroke="none" d="M 2049,2348 L 1414,2348 1414,1586 2684,1586 2684,2348 2049,2348 Z"/>
       </g>
      </g>
      <g class="com.sun.star.drawing.CustomShape">
       <g id="id20">
        <rect class="BoundingBox" stroke="none" fill="none" x="1159" y="1967" width="428" height="509"/>
        <path fill="rgb(42,96,153)" stroke="none" d="M 1373,2475 L 1159,2475 1159,1967 1586,1967 1586,2475 1373,2475 Z"/>
       </g>
      </g>
      <g class="com.sun.star.drawing.CustomShape">
       <g id="id21">
        <rect class="BoundingBox" stroke="none" fill="none" x="2684" y="1586" width="764" height="764"/>
        <path fill="rgb(42,96,153)" stroke="none" d="M 2684,1586 L 3447,2349 2684,2349 2684,1586 2684,1586 Z"/>
       </g>
      </g>
      <g class="com.sun.star.drawing.CustomShape">
       <g id="id22">
        <rect class="BoundingBox" stroke="none" fill="none" x="3190" y="2098" width="3431" height="286"/>
        <path fill="rgb(42,96,153)" stroke="none" d="M 3190,2098 L 6620,2383 3190,2383 3190,2098 3190,2098 Z"/>
       </g>
      </g>
      <g class="com.sun.star.drawing.CustomShape">
       <g id="id23">
        <rect class="BoundingBox" stroke="none" fill="none" x="6324" y="1097" width="1150" height="1269"/>
        <path fill="rgb(42,96,153)" stroke="none" d="M 7079,2365 L 6325,2365 7141,1097 7472,1097 7079,2365 Z"/>
       </g>
      </g>
      <g class="com.sun.star.drawing.CustomShape">
       <g id="id24">
        <rect class="BoundingBox" stroke="none" fill="none" x="6216" y="2474" width="851" height="511"/>
        <path fill="rgb(42,96,153)" stroke="none" d="M 6216,2474 L 7065,2480 7031,2984 6725,2982 6216,2474 Z"/>
       </g>
      </g>
      <g class="com.sun.star.drawing.CustomShape">
       <g id="id25">
        <rect class="BoundingBox" stroke="none" fill="none" x="571" y="2220" width="2287" height="382"/>
        <path fill="rgb(42,96,153)" stroke="none" d="M 1714,2601 L 571,2601 571,2220 2857,2220 2857,2601 1714,2601 Z"/>
       </g>
      </g>
      <g class="com.sun.star.drawing.CustomShape">
       <g id="id26">
        <rect class="BoundingBox" stroke="none" fill="none" x="2602" y="1712" width="128" height="890"/>
        <path fill="rgb(42,96,153)" stroke="none" d="M 2666,2601 L 2602,2601 2602,1712 2729,1712 2729,2601 2666,2601 Z"/>
       </g>
      </g>
      <g class="com.sun.star.drawing.CustomShape">
       <g id="id27">
        <rect class="BoundingBox" stroke="none" fill="none" x="317" y="2474" width="6859" height="128"/>
        <path fill="rgb(85,48,141)" stroke="none" d="M 3746,2601 L 317,2601 317,2474 7175,2474 7175,2601 3746,2601 Z"/>
       </g>
      </g>
      <g class="com.sun.star.drawing.LineShape">
       <g id="id28">
        <rect class="BoundingBox" stroke="none" fill="none" x="1442" y="2457" width="799" height="545"/>
        <path fill="none" stroke="rgb(255,255,255)" stroke-width="35" stroke-linejoin="round" d="M 2222,2475 L 1460,2983"/>
       </g>
      </g>
      <g class="com.sun.star.drawing.CustomShape">
       <g id="id29">
        <rect class="BoundingBox" stroke="none" fill="none" x="1587" y="1713" width="1017" height="423"/>
        <path fill="rgb(0,0,0)" stroke="none" d="M 2095,2135 L 1587,2135 1587,1713 2603,1713 2603,2135 2095,2135 Z"/>
       </g>
      </g>
      <g class="com.sun.star.drawing.CustomShape">
       <g id="id30">
        <rect class="BoundingBox" stroke="none" fill="none" x="1458" y="1583" width="890" height="1145"/>
        <path fill="rgb(0,44,91)" stroke="none" d="M 2347,2727 L 1458,1583 2347,1583 2347,2727 2347,2727 Z"/>
       </g>
      </g>
      <g class="com.sun.star.drawing.CustomShape">
       <g id="id31">
        <rect class="BoundingBox" stroke="none" fill="none" x="2336" y="1582" width="366" height="1144"/>
        <path fill="rgb(0,44,91)" stroke="none" d="M 2519,2725 L 2336,2725 2336,1582 2701,1582 2701,2725 2519,2725 Z"/>
       </g>
      </g>
      <g class="com.sun.star.drawing.CustomShape">
       <g id="id32">
        <rect class="BoundingBox" stroke="none" fill="none" x="2695" y="1585" width="653" height="1145"/>
        <path fill="rgb(0,44,91)" stroke="none" d="M 2695,1585 L 3347,2729 2695,2729 2695,1585 2695,1585 Z"/>
       </g>
      </g>
      <g class="com.sun.star.drawing.CustomShape">
       <g id="id33">
        <rect class="BoundingBox" stroke="none" fill="none" x="2664" y="1367" width="669" height="256"/>
        <path fill="rgb(0,44,91)" stroke="none" d="M 2665,1622 L 3332,1367 2665,1367 2665,1622 2665,1622 Z"/>
       </g>
      </g>
      <g class="com.sun.star.drawing.CustomShape">
       <g id="id34">
        <rect class="BoundingBox" stroke="none" fill="none" x="2082" y="1366" width="605" height="229"/>
        <path fill="rgb(0,44,91)" stroke="none" d="M 2384,1594 L 2082,1594 2082,1366 2686,1366 2686,1594 2384,1594 Z"/>
       </g>
      </g>
      <g class="com.sun.star.drawing.CustomShape">
       <g id="id35">
        <rect class="BoundingBox" stroke="none" fill="none" x="1457" y="1364" width="637" height="224"/>
        <path fill="rgb(0,44,91)" stroke="none" d="M 2093,1364 L 1457,1587 2093,1587 2093,1364 2093,1364 Z"/>
       </g>
      </g>
      <g class="com.sun.star.drawing.CustomShape">
       <g id="id36">
        <rect class="BoundingBox" stroke="none" fill="none" x="1120" y="1625" width="347" height="511"/>
        <path fill="rgb(0,0,0)" stroke="none" d="M 1465,1625 L 1120,2135 1465,2135 1465,1625 1465,1625 Z"/>
       </g>
      </g>
      <g class="com.sun.star.drawing.CustomShape">
       <g id="id37">
        <rect class="BoundingBox" stroke="none" fill="none" x="4117" y="2211" width="655" height="529"/>
        <path fill="rgb(85,48,141)" stroke="none" d="M 4443,2221 L 4369,2415 4126,2415 4323,2536 4249,2730 4443,2611 4638,2730 4564,2536 4762,2415 4518,2415 4443,2221 4443,2221 Z"/>
        <path fill="none" stroke="rgb(255,128,0)" stroke-width="18" stroke-linejoin="round" d="M 4443,2221 L 4369,2415 4126,2415 4323,2536 4249,2730 4443,2611 4638,2730 4564,2536 4762,2415 4518,2415 4443,2221 4443,2221 Z"/>
       </g>
      </g>
     </g>
    </g>
   </g>
  </g>
 </g>
</svg>