<?xml version="1.0" encoding="UTF-8"?>
<!DOCTYPE svg PUBLIC "-//W3C//DTD SVG 1.1//EN" "http://www.w3.org/Graphics/SVG/1.1/DTD/svg11.dtd">
<svg version="1.2" width="76.2mm" height="25.4mm" viewBox="0 0 7620 2540" preserveAspectRatio="xMidYMid" fill-rule="evenodd" stroke-width="28.222" stroke-linejoin="round" xmlns="http://www.w3.org/2000/svg" xmlns:ooo="http://xml.openoffice.org/svg/export" xmlns:xlink="http://www.w3.org/1999/xlink" xmlns:presentation="http://sun.com/xmlns/staroffice/presentation" xmlns:smil="http://www.w3.org/2001/SMIL20/" xmlns:anim="urn:oasis:names:tc:opendocument:xmlns:animation:1.0" xml:space="preserve">
 <defs class="ClipPathGroup">
  <clipPath id="presentation_clip_path" clipPathUnits="userSpaceOnUse">
   <rect x="0" y="0" width="7620" height="2540"/>
  </clipPath>
  <clipPath id="presentation_clip_path_shrink" clipPathUnits="userSpaceOnUse">
   <rect x="7" y="2" width="7605" height="2535"/>
  </clipPath>
 </defs>
 <defs class="TextShapeIndex">
  <g ooo:slide="id1" ooo:id-list="id3 id4 id5 id6 id7 id8 id9 id10 id11 id12 id13 id14 id15 id16 id17 id18 id19 id20 id21 id22 id23 id24 id25 id26 id27 id28 id29 id30 id31 id32 id33 id34 id35 id36 id37"/>
 </defs>
 <defs class="EmbeddedBulletChars">
  <g id="bullet-char-template-57356" transform="scale(0.00048828125,-0.00048828125)">
   <path d="M 580,1141 L 1163,571 580,0 -4,571 580,1141 Z"/>
  </g>
  <g id="bullet-char-template-57354" transform="scale(0.00048828125,-0.00048828125)">
   <path d="M 8,1128 L 1137,1128 1137,0 8,0 8,1128 Z"/>
  </g>
  <g id="bullet-char-template-10146" transform="scale(0.00048828125,-0.00048828125)">
   <path d="M 174,0 L 602,739 174,1481 1456,739 174,0 Z M 1358,739 L 309,1346 659,739 1358,739 Z"/>
  </g>
  <g id="bullet-char-template-10132" transform="scale(0.00048828125,-0.00048828125)">
   <path d="M 2015,739 L 1276,0 717,0 1260,543 174,543 174,936 1260,936 717,1481 1274,1481 2015,739 Z"/>
  </g>
  <g id="bullet-char-template-10007" transform="scale(0.00048828125,-0.00048828125)">
   <path d="M 0,-2 C -7,14 -16,27 -25,37 L 356,567 C 262,823 215,952 215,954 215,979 228,992 255,992 264,992 276,990 289,987 310,991 331,999 354,1012 L 381,999 492,748 772,1049 836,1024 860,1049 C 881,1039 901,1025 922,1006 886,937 835,863 770,784 769,783 710,716 594,584 L 774,223 C 774,196 753,168 711,139 L 727,119 C 717,90 699,76 672,76 641,76 570,178 457,381 L 164,-76 C 142,-110 111,-127 72,-127 30,-127 9,-110 8,-76 1,-67 -2,-52 -2,-32 -2,-23 -1,-13 0,-2 Z"/>
  </g>
  <g id="bullet-char-template-10004" transform="scale(0.00048828125,-0.00048828125)">
   <path d="M 285,-33 C 182,-33 111,30 74,156 52,228 41,333 41,471 41,549 55,616 82,672 116,743 169,778 240,778 293,778 328,747 346,684 L 369,508 C 377,444 397,411 428,410 L 1163,1116 C 1174,1127 1196,1133 1229,1133 1271,1133 1292,1118 1292,1087 L 1292,965 C 1292,929 1282,901 1262,881 L 442,47 C 390,-6 338,-33 285,-33 Z"/>
  </g>
  <g id="bullet-char-template-9679" transform="scale(0.00048828125,-0.00048828125)">
   <path d="M 813,0 C 632,0 489,54 383,161 276,268 223,411 223,592 223,773 276,916 383,1023 489,1130 632,1184 813,1184 992,1184 1136,1130 1245,1023 1353,916 1407,772 1407,592 1407,412 1353,268 1245,161 1136,54 992,0 813,0 Z"/>
  </g>
  <g id="bullet-char-template-8226" transform="scale(0.00048828125,-0.00048828125)">
   <path d="M 346,457 C 273,457 209,483 155,535 101,586 74,649 74,723 74,796 101,859 155,911 209,963 273,989 346,989 419,989 480,963 531,910 582,859 608,796 608,723 608,648 583,586 532,535 482,483 420,457 346,457 Z"/>
  </g>
  <g id="bullet-char-template-8211" transform="scale(0.00048828125,-0.00048828125)">
   <path d="M -4,459 L 1135,459 1135,606 -4,606 -4,459 Z"/>
  </g>
  <g id="bullet-char-template-61548" transform="scale(0.00048828125,-0.00048828125)">
   <path d="M 173,740 C 173,903 231,1043 346,1159 462,1274 601,1332 765,1332 928,1332 1067,1274 1183,1159 1299,1043 1357,903 1357,740 1357,577 1299,437 1183,322 1067,206 928,148 765,148 601,148 462,206 346,322 231,437 173,577 173,740 Z"/>
  </g>
 </defs>
 <g>
  <g id="id2" class="Master_Slide">
   <g id="bg-id2" class="Background"/>
   <g id="bo-id2" class="BackgroundObjects"/>
  </g>
 </g>
 <g class="SlideGroup">
  <g>
   <g id="container-id1">
    <g id="id1" class="Slide" clip-path="url(#presentation_clip_path)">
     <g class="Page">
      <g class="com.sun.star.drawing.CustomShape">
       <g id="id3">
        <rect class="BoundingBox" stroke="none" fill="none" x="7139" y="732" width="255" height="1290"/>
        <path fill="rgb(178,178,178)" stroke="none" d="M 7153,1377 C 7153,1487 7158,1596 7168,1692 7178,1788 7192,1867 7210,1923 7227,1978 7246,2007 7266,2007 7286,2007 7305,1978 7323,1923 7340,1867 7354,1788 7364,1692 7374,1596 7379,1487 7379,1377 7379,1266 7374,1157 7364,1061 7354,965 7340,886 7323,830 7305,775 7286,746 7266,746 7246,746 7227,775 7210,830 7192,886 7178,965 7168,1061 7158,1157 7153,1266 7153,1376 L 7153,1377 Z"/>
        <path fill="none" stroke="rgb(255,255,0)" stroke-width="28" stroke-linejoin="round" d="M 7153,1377 C 7153,1487 7158,1596 7168,1692 7178,1788 7192,1867 7210,1923 7227,1978 7246,2007 7266,2007 7286,2007 7305,1978 7323,1923 7340,1867 7354,1788 7364,1692 7374,1596 7379,1487 7379,1377 7379,1266 7374,1157 7364,1061 7354,965 7340,886 7323,830 7305,775 7286,746 7266,746 7246,746 7227,775 7210,830 7192,886 7178,965 7168,1061 7158,1157 7153,1266 7153,1376 L 7153,1377 Z"/>
       </g>
      </g>
      <g class="com.sun.star.drawing.CustomShape">
       <g id="id4">
        <rect class="BoundingBox" stroke="none" fill="none" x="469" y="1250" width="6804" height="253"/>
        <path fill="rgb(42,96,153)" stroke="none" d="M 3871,1502 L 469,1502 469,1250 7272,1250 7272,1502 3871,1502 Z"/>
       </g>
      </g>
      <g class="com.sun.star.drawing.CustomShape">
       <g id="id5">
        <rect class="BoundingBox" stroke="none" fill="none" x="474" y="1495" width="3403" height="381"/>
        <path fill="rgb(42,96,153)" stroke="none" d="M 3876,1875 L 474,1496 3876,1496 3876,1875 3876,1875 Z"/>
       </g>
      </g>
      <g class="com.sun.star.drawing.CustomShape">
       <g id="id6">
        <rect class="BoundingBox" stroke="none" fill="none" x="3870" y="1502" width="3277" height="379"/>
        <path fill="rgb(42,96,153)" stroke="none" d="M 5508,1880 L 3870,1880 3870,1502 7146,1502 7146,1880 5508,1880 Z"/>
       </g>
      </g>
      <g class="com.sun.star.drawing.CustomShape">
       <g id="id7">
        <rect class="BoundingBox" stroke="none" fill="none" x="7103" y="1497" width="175" height="381"/>
        <path fill="rgb(42,96,153)" stroke="none" d="M 7104,1876 L 7277,1497 7104,1497 7104,1876 7104,1876 Z"/>
       </g>
      </g>
      <g class="com.sun.star.drawing.CustomShape">
       <g id="id8">
        <rect class="BoundingBox" stroke="none" fill="none" x="6216" y="2158" width="256" height="256"/>
        <path fill="rgb(0,0,0)" stroke="none" d="M 6217,2286 C 6217,2308 6223,2330 6234,2349 6245,2368 6261,2384 6280,2395 6299,2406 6321,2412 6343,2412 6366,2412 6388,2406 6407,2395 6426,2384 6442,2368 6453,2349 6464,2330 6470,2308 6470,2286 6470,2263 6464,2241 6453,2222 6442,2203 6426,2187 6407,2176 6388,2165 6366,2159 6343,2159 6321,2159 6299,2165 6280,2176 6261,2187 6245,2203 6234,2222 6223,2241 6217,2263 6217,2286 L 6217,2286 Z"/>
        <path fill="none" stroke="rgb(0,0,0)" d="M 6217,2286 C 6217,2308 6223,2330 6234,2349 6245,2368 6261,2384 6280,2395 6299,2406 6321,2412 6343,2412 6366,2412 6388,2406 6407,2395 6426,2384 6442,2368 6453,2349 6464,2330 6470,2308 6470,2286 6470,2263 6464,2241 6453,2222 6442,2203 6426,2187 6407,2176 6388,2165 6366,2159 6343,2159 6321,2159 6299,2165 6280,2176 6261,2187 6245,2203 6234,2222 6223,2241 6217,2263 6217,2286 Z"/>
       </g>
      </g>
      <g class="com.sun.star.drawing.CustomShape">
       <g id="id9">
        <rect class="BoundingBox" stroke="none" fill="none" x="6162" y="2158" width="382" height="130"/>
        <path fill="rgb(42,96,153)" stroke="none" d="M 6163,2223 C 6163,2234 6172,2245 6188,2254 6205,2264 6229,2272 6258,2277 6287,2283 6319,2286 6353,2286 6386,2286 6418,2283 6447,2277 6476,2272 6500,2264 6517,2254 6533,2245 6542,2234 6542,2223 6542,2211 6533,2200 6517,2191 6500,2181 6476,2173 6447,2168 6418,2162 6386,2159 6353,2159 6319,2159 6287,2162 6258,2168 6229,2173 6205,2181 6188,2191 6172,2200 6163,2211 6163,2223 L 6163,2223 Z"/>
        <path fill="none" stroke="rgb(0,0,0)" d="M 6163,2223 C 6163,2234 6172,2245 6188,2254 6205,2264 6229,2272 6258,2277 6287,2283 6319,2286 6353,2286 6386,2286 6418,2283 6447,2277 6476,2272 6500,2264 6517,2254 6533,2245 6542,2234 6542,2223 6542,2211 6533,2200 6517,2191 6500,2181 6476,2173 6447,2168 6418,2162 6386,2159 6353,2159 6319,2159 6287,2162 6258,2168 6229,2173 6205,2181 6188,2191 6172,2200 6163,2211 6163,2223 Z"/>
       </g>
      </g>
      <g class="com.sun.star.drawing.CustomShape">
       <g id="id10">
        <rect class="BoundingBox" stroke="none" fill="none" x="5040" y="2284" width="256" height="256"/>
        <path fill="rgb(0,0,0)" stroke="none" d="M 5041,2412 C 5041,2434 5047,2456 5058,2475 5069,2494 5085,2510 5104,2521 5123,2532 5145,2538 5168,2538 5190,2538 5212,2532 5231,2521 5250,2510 5266,2494 5277,2475 5288,2456 5294,2434 5294,2412 5294,2389 5288,2367 5277,2348 5266,2329 5250,2313 5231,2302 5212,2291 5190,2285 5168,2285 5145,2285 5123,2291 5104,2302 5085,2313 5069,2329 5058,2348 5047,2367 5041,2389 5041,2412 L 5041,2412 Z"/>
        <path fill="none" stroke="rgb(0,0,0)" d="M 5041,2412 C 5041,2434 5047,2456 5058,2475 5069,2494 5085,2510 5104,2521 5123,2532 5145,2538 5168,2538 5190,2538 5212,2532 5231,2521 5250,2510 5266,2494 5277,2475 5288,2456 5294,2434 5294,2412 5294,2389 5288,2367 5277,2348 5266,2329 5250,2313 5231,2302 5212,2291 5190,2285 5168,2285 5145,2285 5123,2291 5104,2302 5085,2313 5069,2329 5058,2348 5047,2367 5041,2389 5041,2412 Z"/>
       </g>
      </g>
      <g class="com.sun.star.drawing.CustomShape">
       <g id="id11">
        <rect class="BoundingBox" stroke="none" fill="none" x="4997" y="2280" width="382" height="130"/>
        <path fill="rgb(42,96,153)" stroke="none" d="M 4998,2345 C 4998,2356 5007,2367 5023,2376 5040,2386 5064,2394 5093,2399 5122,2405 5154,2408 5188,2408 5221,2408 5253,2405 5282,2399 5311,2394 5335,2386 5352,2376 5368,2367 5377,2356 5377,2345 5377,2333 5368,2322 5352,2313 5335,2303 5311,2295 5282,2290 5253,2284 5221,2281 5188,2281 5154,2281 5122,2284 5093,2290 5064,2295 5040,2303 5023,2313 5007,2322 4998,2333 4998,2345 L 4998,2345 Z"/>
        <path fill="none" stroke="rgb(0,0,0)" d="M 4998,2345 C 4998,2356 5007,2367 5023,2376 5040,2386 5064,2394 5093,2399 5122,2405 5154,2408 5188,2408 5221,2408 5253,2405 5282,2399 5311,2394 5335,2386 5352,2376 5368,2367 5377,2356 5377,2345 5377,2333 5368,2322 5352,2313 5335,2303 5311,2295 5282,2290 5253,2284 5221,2281 5188,2281 5154,2281 5122,2284 5093,2290 5064,2295 5040,2303 5023,2313 5007,2322 4998,2333 4998,2345 Z"/>
       </g>
      </g>
      <g class="com.sun.star.drawing.CustomShape">
       <g id="id12">
        <rect class="BoundingBox" stroke="none" fill="none" x="4715" y="2131" width="256" height="256"/>
        <path fill="rgb(0,0,0)" stroke="none" d="M 4716,2259 C 4716,2281 4722,2303 4733,2322 4744,2341 4760,2357 4779,2368 4798,2379 4820,2385 4842,2385 4865,2385 4887,2379 4906,2368 4925,2357 4941,2341 4952,2322 4963,2303 4969,2281 4969,2259 4969,2236 4963,2214 4952,2195 4941,2176 4925,2160 4906,2149 4887,2138 4865,2132 4842,2132 4820,2132 4798,2138 4779,2149 4760,2160 4744,2176 4733,2195 4722,2214 4716,2236 4716,2259 L 4716,2259 Z"/>
        <path fill="none" stroke="rgb(0,0,0)" d="M 4716,2259 C 4716,2281 4722,2303 4733,2322 4744,2341 4760,2357 4779,2368 4798,2379 4820,2385 4842,2385 4865,2385 4887,2379 4906,2368 4925,2357 4941,2341 4952,2322 4963,2303 4969,2281 4969,2259 4969,2236 4963,2214 4952,2195 4941,2176 4925,2160 4906,2149 4887,2138 4865,2132 4842,2132 4820,2132 4798,2138 4779,2149 4760,2160 4744,2176 4733,2195 4722,2214 4716,2236 4716,2259 Z"/>
       </g>
      </g>
      <g class="com.sun.star.drawing.CustomShape">
       <g id="id13">
        <rect class="BoundingBox" stroke="none" fill="none" x="4638" y="2123" width="382" height="130"/>
        <path fill="rgb(42,96,153)" stroke="none" d="M 4639,2188 C 4639,2199 4648,2210 4664,2219 4681,2229 4705,2237 4734,2242 4763,2248 4795,2251 4829,2251 4862,2251 4894,2248 4923,2242 4952,2237 4976,2229 4993,2219 5009,2210 5018,2199 5018,2188 5018,2176 5009,2165 4993,2156 4976,2146 4952,2138 4923,2133 4894,2127 4862,2124 4829,2124 4795,2124 4763,2127 4734,2133 4705,2138 4681,2146 4664,2156 4648,2165 4639,2176 4639,2188 L 4639,2188 Z"/>
        <path fill="none" stroke="rgb(0,0,0)" d="M 4639,2188 C 4639,2199 4648,2210 4664,2219 4681,2229 4705,2237 4734,2242 4763,2248 4795,2251 4829,2251 4862,2251 4894,2248 4923,2242 4952,2237 4976,2229 4993,2219 5009,2210 5018,2199 5018,2188 5018,2176 5009,2165 4993,2156 4976,2146 4952,2138 4923,2133 4894,2127 4862,2124 4829,2124 4795,2124 4763,2127 4734,2133 4705,2138 4681,2146 4664,2156 4648,2165 4639,2176 4639,2188 Z"/>
       </g>
      </g>
      <g class="com.sun.star.drawing.LineShape">
       <g id="id14">
        <rect class="BoundingBox" stroke="none" fill="none" x="6317" y="1628" width="55" height="559"/>
        <path fill="none" stroke="rgb(42,96,153)" stroke-width="53" stroke-linejoin="round" d="M 6344,2159 L 6344,1655"/>
       </g>
      </g>
      <g class="com.sun.star.drawing.LineShape">
       <g id="id15">
        <rect class="BoundingBox" stroke="none" fill="none" x="4717" y="1770" width="311" height="489"/>
        <path fill="none" stroke="rgb(42,96,153)" stroke-width="53" stroke-linejoin="round" d="M 4744,2231 L 5000,1797"/>
       </g>
      </g>
      <g class="com.sun.star.drawing.LineShape">
       <g id="id16">
        <rect class="BoundingBox" stroke="none" fill="none" x="5067" y="1826" width="146" height="551"/>
        <path fill="none" stroke="rgb(42,96,153)" stroke-width="53" stroke-linejoin="round" d="M 5185,2349 L 5094,1853"/>
       </g>
      </g>
      <g class="com.sun.star.drawing.CustomShape">
       <g id="id17">
        <rect class="BoundingBox" stroke="none" fill="none" x="6355" y="858" width="920" height="395"/>
        <path fill="rgb(42,96,153)" stroke="none" d="M 6355,858 L 7274,1252 6355,1252 6355,858 6355,858 Z"/>
       </g>
      </g>
      <g class="com.sun.star.drawing.CustomShape">
       <g id="id18">
        <rect class="BoundingBox" stroke="none" fill="none" x="6136" y="499" width="254" height="380"/>
        <path fill="rgb(42,96,153)" stroke="none" d="M 6136,499 L 6389,878 6136,878 6136,499 6136,499 Z"/>
       </g>
      </g>
      <g class="com.sun.star.drawing.CustomShape">
       <g id="id19">
        <rect class="BoundingBox" stroke="none" fill="none" x="4878" y="494" width="1261" height="757"/>
        <path fill="rgb(42,96,153)" stroke="none" d="M 5508,1250 L 4878,1250 4878,494 6138,494 6138,1250 5508,1250 Z"/>
       </g>
      </g>
      <g class="com.sun.star.drawing.CustomShape">
       <g id="id20">
        <rect class="BoundingBox" stroke="none" fill="none" x="5966" y="872" width="425" height="505"/>
        <path fill="rgb(42,96,153)" stroke="none" d="M 6178,1376 L 5966,1376 5966,872 6390,872 6390,1376 6178,1376 Z"/>
       </g>
      </g>
      <g class="com.sun.star.drawing.CustomShape">
       <g id="id21">
        <rect class="BoundingBox" stroke="none" fill="none" x="4121" y="494" width="758" height="758"/>
        <path fill="rgb(42,96,153)" stroke="none" d="M 4878,494 L 4121,1251 4878,1251 4878,494 4878,494 Z"/>
       </g>
      </g>
      <g class="com.sun.star.drawing.CustomShape">
       <g id="id22">
        <rect class="BoundingBox" stroke="none" fill="none" x="973" y="1002" width="3403" height="284"/>
        <path fill="rgb(42,96,153)" stroke="none" d="M 4375,1002 L 973,1285 4375,1285 4375,1002 4375,1002 Z"/>
       </g>
      </g>
      <g class="com.sun.star.drawing.CustomShape">
       <g id="id23">
        <rect class="BoundingBox" stroke="none" fill="none" x="130" y="7" width="1139" height="1260"/>
        <path fill="rgb(42,96,153)" stroke="none" d="M 520,1265 L 1268,1265 457,7 130,7 520,1265 Z"/>
       </g>
      </g>
      <g class="com.sun.star.drawing.CustomShape">
       <g id="id24">
        <rect class="BoundingBox" stroke="none" fill="none" x="532" y="1376" width="843" height="506"/>
        <path fill="rgb(42,96,153)" stroke="none" d="M 1374,1376 L 533,1382 566,1881 869,1879 1374,1376 Z"/>
       </g>
      </g>
      <g class="com.sun.star.drawing.CustomShape">
       <g id="id25">
        <rect class="BoundingBox" stroke="none" fill="none" x="4707" y="1124" width="2268" height="379"/>
        <path fill="rgb(42,96,153)" stroke="none" d="M 5841,1502 L 4707,1502 4707,1124 6974,1124 6974,1502 5841,1502 Z"/>
       </g>
      </g>
      <g class="com.sun.star.drawing.CustomShape">
       <g id="id26">
        <rect class="BoundingBox" stroke="none" fill="none" x="4832" y="620" width="127" height="883"/>
        <path fill="rgb(42,96,153)" stroke="none" d="M 4895,1502 L 4832,1502 4832,620 4958,620 4958,1502 4895,1502 Z"/>
       </g>
      </g>
      <g class="com.sun.star.drawing.CustomShape">
       <g id="id27">
        <rect class="BoundingBox" stroke="none" fill="none" x="423" y="1376" width="6804" height="127"/>
        <path fill="rgb(85,48,141)" stroke="none" d="M 3825,1502 L 423,1502 423,1376 7226,1376 7226,1502 3825,1502 Z"/>
       </g>
      </g>
      <g class="com.sun.star.drawing.LineShape">
       <g id="id28">
        <rect class="BoundingBox" stroke="none" fill="none" x="5318" y="1358" width="793" height="541"/>
        <path fill="none" stroke="rgb(255,255,255)" stroke-width="35" stroke-linejoin="round" d="M 5336,1376 L 6092,1880"/>
       </g>
      </g>
      <g class="com.sun.star.drawing.CustomShape">
       <g id="id29">
        <rect class="BoundingBox" stroke="none" fill="none" x="4958" y="619" width="1009" height="420"/>
        <path fill="rgb(0,0,0)" stroke="none" d="M 5462,1038 L 4958,1038 4958,619 5966,619 5966,1038 5462,1038 Z"/>
       </g>
      </g>
      <g class="com.sun.star.drawing.CustomShape">
       <g id="id30">
        <rect class="BoundingBox" stroke="none" fill="none" x="5214" y="489" width="884" height="1136"/>
        <path fill="rgb(0,44,91)" stroke="none" d="M 5214,1624 L 6096,489 5214,489 5214,1624 5214,1624 Z"/>
       </g>
      </g>
      <g class="com.sun.star.drawing.CustomShape">
       <g id="id31">
        <rect class="BoundingBox" stroke="none" fill="none" x="4860" y="491" width="363" height="1135"/>
        <path fill="rgb(0,44,91)" stroke="none" d="M 5041,1625 L 4860,1625 4860,491 5222,491 5222,1625 5041,1625 Z"/>
       </g>
      </g>
      <g class="com.sun.star.drawing.CustomShape">
       <g id="id32">
        <rect class="BoundingBox" stroke="none" fill="none" x="4219" y="494" width="648" height="1136"/>
        <path fill="rgb(0,44,91)" stroke="none" d="M 4866,494 L 4219,1629 4866,1629 4866,494 4866,494 Z"/>
       </g>
      </g>
      <g class="com.sun.star.drawing.CustomShape">
       <g id="id33">
        <rect class="BoundingBox" stroke="none" fill="none" x="4235" y="276" width="663" height="255"/>
        <path fill="rgb(0,44,91)" stroke="none" d="M 4897,530 L 4235,277 4897,277 4897,530 4897,530 Z"/>
       </g>
      </g>
      <g class="com.sun.star.drawing.CustomShape">
       <g id="id34">
        <rect class="BoundingBox" stroke="none" fill="none" x="4875" y="276" width="600" height="227"/>
        <path fill="rgb(0,44,91)" stroke="none" d="M 5175,502 L 4875,502 4875,276 5474,276 5474,502 5175,502 Z"/>
       </g>
      </g>
      <g class="com.sun.star.drawing.CustomShape">
       <g id="id35">
        <rect class="BoundingBox" stroke="none" fill="none" x="5466" y="274" width="632" height="222"/>
        <path fill="rgb(0,44,91)" stroke="none" d="M 5466,274 L 6097,495 5466,495 5466,274 5466,274 Z"/>
       </g>
      </g>
      <g class="com.sun.star.drawing.CustomShape">
       <g id="id36">
        <rect class="BoundingBox" stroke="none" fill="none" x="6087" y="533" width="344" height="507"/>
        <path fill="rgb(0,0,0)" stroke="none" d="M 6087,533 L 6430,1039 6087,1039 6087,533 6087,533 Z"/>
       </g>
      </g>
      <g class="com.sun.star.drawing.CustomShape">
       <g id="id37">
        <rect class="BoundingBox" stroke="none" fill="none" x="2807" y="1115" width="650" height="524"/>
        <path fill="rgb(85,48,141)" stroke="none" d="M 3132,1124 L 3206,1317 3447,1317 3251,1437 3325,1629 3132,1511 2939,1629 3013,1437 2816,1317 3058,1317 3132,1124 3132,1124 Z"/>
        <path fill="none" stroke="rgb(255,128,0)" stroke-width="18" stroke-linejoin="round" d="M 3132,1124 L 3206,1317 3447,1317 3251,1437 3325,1629 3132,1511 2939,1629 3013,1437 2816,1317 3058,1317 3132,1124 3132,1124 Z"/>
       </g>
      </g>
     </g>
    </g>
   </g>
  </g>
 </g>
</svg>