<?xml version="1.0" encoding="UTF-8"?>
<!DOCTYPE svg PUBLIC "-//W3C//DTD SVG 1.1//EN" "http://www.w3.org/Graphics/SVG/1.1/DTD/svg11.dtd">
<svg version="1.2" width="76.46mm" height="23.37mm" viewBox="0 0 7646 2337" preserveAspectRatio="xMidYMid" fill-rule="evenodd" stroke-width="28.222" stroke-linejoin="round" xmlns="http://www.w3.org/2000/svg" xmlns:ooo="http://xml.openoffice.org/svg/export" xmlns:xlink="http://www.w3.org/1999/xlink" xmlns:presentation="http://sun.com/xmlns/staroffice/presentation" xmlns:smil="http://www.w3.org/2001/SMIL20/" xmlns:anim="urn:oasis:names:tc:opendocument:xmlns:animation:1.0" xml:space="preserve">
 <defs class="ClipPathGroup">
  <clipPath id="presentation_clip_path" clipPathUnits="userSpaceOnUse">
   <rect x="0" y="0" width="7646" height="2337"/>
  </clipPath>
  <clipPath id="presentation_clip_path_shrink" clipPathUnits="userSpaceOnUse">
   <rect x="7" y="2" width="7631" height="2333"/>
  </clipPath>
 </defs>
 <defs class="TextShapeIndex">
  <g ooo:slide="id1" ooo:id-list="id3 id4 id5 id6"/>
 </defs>
 <defs class="EmbeddedBulletChars">
  <g id="bullet-char-template-57356" transform="scale(0.00048828125,-0.00048828125)">
   <path d="M 580,1141 L 1163,571 580,0 -4,571 580,1141 Z"/>
  </g>
  <g id="bullet-char-template-57354" transform="scale(0.00048828125,-0.00048828125)">
   <path d="M 8,1128 L 1137,1128 1137,0 8,0 8,1128 Z"/>
  </g>
  <g id="bullet-char-template-10146" transform="scale(0.00048828125,-0.00048828125)">
   <path d="M 174,0 L 602,739 174,1481 1456,739 174,0 Z M 1358,739 L 309,1346 659,739 1358,739 Z"/>
  </g>
  <g id="bullet-char-template-10132" transform="scale(0.00048828125,-0.00048828125)">
   <path d="M 2015,739 L 1276,0 717,0 1260,543 174,543 174,936 1260,936 717,1481 1274,1481 2015,739 Z"/>
  </g>
  <g id="bullet-char-template-10007" transform="scale(0.00048828125,-0.00048828125)">
   <path d="M 0,-2 C -7,14 -16,27 -25,37 L 356,567 C 262,823 215,952 215,954 215,979 228,992 255,992 264,992 276,990 289,987 310,991 331,999 354,1012 L 381,999 492,748 772,1049 836,1024 860,1049 C 881,1039 901,1025 922,1006 886,937 835,863 770,784 769,783 710,716 594,584 L 774,223 C 774,196 753,168 711,139 L 727,119 C 717,90 699,76 672,76 641,76 570,178 457,381 L 164,-76 C 142,-110 111,-127 72,-127 30,-127 9,-110 8,-76 1,-67 -2,-52 -2,-32 -2,-23 -1,-13 0,-2 Z"/>
  </g>
  <g id="bullet-char-template-10004" transform="scale(0.00048828125,-0.00048828125)">
   <path d="M 285,-33 C 182,-33 111,30 74,156 52,228 41,333 41,471 41,549 55,616 82,672 116,743 169,778 240,778 293,778 328,747 346,684 L 369,508 C 377,444 397,411 428,410 L 1163,1116 C 1174,1127 1196,1133 1229,1133 1271,1133 1292,1118 1292,1087 L 1292,965 C 1292,929 1282,901 1262,881 L 442,47 C 390,-6 338,-33 285,-33 Z"/>
  </g>
  <g id="bullet-char-template-9679" transform="scale(0.00048828125,-0.00048828125)">
   <path d="M 813,0 C 632,0 489,54 383,161 276,268 223,411 223,592 223,773 276,916 383,1023 489,1130 632,1184 813,1184 992,1184 1136,1130 1245,1023 1353,916 1407,772 1407,592 1407,412 1353,268 1245,161 1136,54 992,0 813,0 Z"/>
  </g>
  <g id="bullet-char-template-8226" transform="scale(0.00048828125,-0.00048828125)">
   <path d="M 346,457 C 273,457 209,483 155,535 101,586 74,649 74,723 74,796 101,859 155,911 209,963 273,989 346,989 419,989 480,963 531,910 582,859 608,796 608,723 608,648 583,586 532,535 482,483 420,457 346,457 Z"/>
  </g>
  <g id="bullet-char-template-8211" transform="scale(0.00048828125,-0.00048828125)">
   <path d="M -4,459 L 1135,459 1135,606 -4,606 -4,459 Z"/>
  </g>
  <g id="bullet-char-template-61548" transform="scale(0.00048828125,-0.00048828125)">
   <path d="M 173,740 C 173,903 231,1043 346,1159 462,1274 601,1332 765,1332 928,1332 1067,1274 1183,1159 1299,1043 1357,903 1357,740 1357,577 1299,437 1183,322 1067,206 928,148 765,148 601,148 462,206 346,322 231,437 173,577 173,740 Z"/>
  </g>
 </defs>
 <g>
  <g id="id2" class="Master_Slide">
   <g id="bg-id2" class="Background"/>
   <g id="bo-id2" class="BackgroundObjects"/>
  </g>
 </g>
 <g class="SlideGroup">
  <g>
   <g id="container-id1">
    <g id="id1" class="Slide" clip-path="url(#presentation_clip_path)">
     <g class="Page">
      <g class="Graphic">
       <g id="id3">
        <rect class="BoundingBox" stroke="none" fill="none" x="0" y="0" width="7646" height="2337"/>
        <defs>
         <clipPath id="clip_path_1" clipPathUnits="userSpaceOnUse">
          <path d="M 90,36 L 7497,36 7497,2323 90,2323 90,36 Z"/>
         </clipPath>
        </defs>
        <g clip-path="url(#clip_path_1)">
         <path fill="rgb(178,178,178)" stroke="none" d="M 7232,910 C 7246,1020 7266,1127 7288,1220 7311,1314 7335,1391 7359,1443 7384,1496 7407,1522 7426,1520 7446,1517 7462,1486 7471,1428 7481,1371 7485,1291 7482,1194 7480,1099 7471,990 7456,881 7442,771 7422,664 7400,570 7378,476 7353,399 7329,347 7305,294 7281,268 7262,270 7242,273 7227,304 7217,362 7207,419 7203,499 7206,596 7209,692 7218,801 7232,910 L 7232,910 7232,910 Z"/>
         <path fill="none" stroke="rgb(255,255,0)" stroke-width="28" stroke-linejoin="round" d="M 7232,910 C 7246,1020 7266,1127 7288,1220 7311,1314 7335,1391 7359,1443 7384,1496 7407,1522 7426,1520 7446,1517 7462,1486 7471,1428 7481,1371 7485,1291 7482,1194 7480,1099 7471,990 7456,881 7442,771 7422,664 7400,570 7378,476 7353,399 7329,347 7305,294 7281,268 7262,270 7242,273 7227,304 7217,362 7207,419 7203,499 7206,596 7209,692 7218,801 7232,910 Z"/>
         <path fill="rgb(42,96,153)" stroke="none" d="M 3993,1463 L 622,1907 589,1657 7333,770 7366,1020 3993,1463 3993,1463 Z"/>
         <path fill="rgb(42,96,153)" stroke="none" d="M 4048,1830 L 627,1899 3999,1455 4048,1830 4048,1830 4048,1830 Z"/>
         <path fill="rgb(42,96,153)" stroke="none" d="M 5665,1622 L 4041,1836 3992,1462 7240,1035 7289,1408 5665,1622 5665,1622 Z"/>
         <path fill="rgb(42,96,153)" stroke="none" d="M 7249,1411 L 7371,1013 7200,1036 7249,1411 7249,1411 7249,1411 Z"/>
         <path fill="rgb(0,0,0)" stroke="none" d="M 6422,1932 C 6425,1954 6434,1975 6447,1993 6461,2010 6479,2024 6499,2032 6520,2041 6542,2044 6564,2041 6586,2038 6607,2029 6625,2016 6642,2002 6656,1984 6664,1964 6673,1943 6676,1921 6673,1899 6670,1877 6661,1856 6648,1839 6634,1821 6616,1807 6596,1799 6575,1790 6553,1787 6531,1790 6509,1793 6488,1802 6471,1815 6453,1829 6439,1847 6431,1867 6422,1888 6419,1910 6422,1932 L 6422,1932 6422,1932 Z"/>
         <path fill="none" stroke="rgb(0,0,0)" stroke-width="28" stroke-linejoin="round" d="M 6422,1932 C 6425,1954 6434,1975 6447,1993 6461,2010 6479,2024 6499,2032 6520,2041 6542,2044 6564,2041 6586,2038 6607,2029 6625,2016 6642,2002 6656,1984 6664,1964 6673,1943 6676,1921 6673,1899 6670,1877 6661,1856 6648,1839 6634,1821 6616,1807 6596,1799 6575,1790 6553,1787 6531,1790 6509,1793 6488,1802 6471,1815 6453,1829 6439,1847 6431,1867 6422,1888 6419,1910 6422,1932 Z"/>
         <path fill="rgb(42,96,153)" stroke="none" d="M 6361,1876 C 6362,1887 6372,1897 6390,1904 6408,1912 6433,1917 6462,1918 6491,1920 6524,1919 6557,1915 6590,1910 6622,1903 6650,1894 6678,1884 6700,1873 6715,1862 6731,1850 6738,1838 6736,1827 6735,1816 6725,1806 6707,1799 6689,1791 6665,1786 6635,1785 6606,1783 6573,1784 6540,1789 6507,1793 6475,1800 6447,1809 6420,1819 6397,1830 6382,1842 6366,1853 6359,1865 6361,1876 L 6361,1876 6361,1876 Z"/>
         <path fill="none" stroke="rgb(0,0,0)" stroke-width="28" stroke-linejoin="round" d="M 6361,1876 C 6362,1887 6372,1897 6390,1904 6408,1912 6433,1917 6462,1918 6491,1920 6524,1919 6557,1915 6590,1910 6622,1903 6650,1894 6678,1884 6700,1873 6715,1862 6731,1850 6738,1838 6736,1827 6735,1816 6725,1806 6707,1799 6689,1791 6665,1786 6635,1785 6606,1783 6573,1784 6540,1789 6507,1793 6475,1800 6447,1809 6420,1819 6397,1830 6382,1842 6366,1853 6359,1865 6361,1876 Z"/>
         <path fill="rgb(0,0,0)" stroke="none" d="M 5271,2211 C 5274,2233 5283,2254 5296,2272 5310,2289 5328,2303 5348,2311 5369,2320 5391,2323 5413,2320 5435,2317 5456,2308 5474,2295 5491,2281 5505,2263 5513,2243 5522,2222 5525,2200 5522,2178 5519,2156 5510,2135 5497,2118 5483,2100 5465,2086 5445,2078 5424,2069 5402,2066 5380,2069 5358,2072 5337,2081 5320,2094 5302,2108 5288,2126 5280,2146 5271,2167 5268,2189 5271,2211 L 5271,2211 5271,2211 Z"/>
         <path fill="none" stroke="rgb(0,0,0)" stroke-width="28" stroke-linejoin="round" d="M 5271,2211 C 5274,2233 5283,2254 5296,2272 5310,2289 5328,2303 5348,2311 5369,2320 5391,2323 5413,2320 5435,2317 5456,2308 5474,2295 5491,2281 5505,2263 5513,2243 5522,2222 5525,2200 5522,2178 5519,2156 5510,2135 5497,2118 5483,2100 5465,2086 5445,2078 5424,2069 5402,2066 5380,2069 5358,2072 5337,2081 5320,2094 5302,2108 5288,2126 5280,2146 5271,2167 5268,2189 5271,2211 Z"/>
         <path fill="rgb(42,96,153)" stroke="none" d="M 5221,2150 C 5222,2161 5232,2171 5250,2178 5268,2186 5293,2191 5322,2192 5351,2194 5384,2193 5417,2189 5450,2184 5482,2177 5510,2168 5538,2158 5560,2147 5575,2136 5591,2124 5598,2112 5596,2101 5595,2090 5585,2080 5567,2073 5549,2065 5525,2060 5495,2059 5466,2057 5433,2058 5400,2063 5367,2067 5335,2074 5307,2083 5280,2093 5257,2104 5242,2116 5226,2127 5219,2139 5221,2150 L 5221,2150 5221,2150 Z"/>
         <path fill="none" stroke="rgb(0,0,0)" stroke-width="28" stroke-linejoin="round" d="M 5221,2150 C 5222,2161 5232,2171 5250,2178 5268,2186 5293,2191 5322,2192 5351,2194 5384,2193 5417,2189 5450,2184 5482,2177 5510,2168 5538,2158 5560,2147 5575,2136 5591,2124 5598,2112 5596,2101 5595,2090 5585,2080 5567,2073 5549,2065 5525,2060 5495,2059 5466,2057 5433,2058 5400,2063 5367,2067 5335,2074 5307,2083 5280,2093 5257,2104 5242,2116 5226,2127 5219,2139 5221,2150 Z"/>
         <path fill="rgb(0,0,0)" stroke="none" d="M 4930,2101 C 4933,2123 4942,2144 4955,2162 4969,2179 4987,2193 5007,2201 5028,2210 5050,2213 5072,2210 5094,2207 5115,2198 5133,2185 5150,2171 5164,2153 5172,2133 5181,2112 5184,2090 5181,2068 5178,2046 5169,2025 5156,2008 5142,1990 5124,1976 5104,1968 5083,1959 5061,1956 5039,1959 5017,1962 4996,1971 4979,1984 4961,1998 4947,2016 4939,2036 4930,2057 4927,2079 4930,2101 L 4930,2101 4930,2101 Z"/>
         <path fill="none" stroke="rgb(0,0,0)" stroke-width="28" stroke-linejoin="round" d="M 4930,2101 C 4933,2123 4942,2144 4955,2162 4969,2179 4987,2193 5007,2201 5028,2210 5050,2213 5072,2210 5094,2207 5115,2198 5133,2185 5150,2171 5164,2153 5172,2133 5181,2112 5184,2090 5181,2068 5178,2046 5169,2025 5156,2008 5142,1990 5124,1976 5104,1968 5083,1959 5061,1956 5039,1959 5017,1962 4996,1971 4979,1984 4961,1998 4947,2016 4939,2036 4930,2057 4927,2079 4930,2101 Z"/>
         <path fill="rgb(42,96,153)" stroke="none" d="M 4844,2042 C 4845,2053 4855,2063 4873,2070 4891,2078 4916,2083 4945,2084 4974,2086 5007,2085 5040,2081 5073,2076 5105,2069 5133,2060 5161,2050 5183,2039 5198,2028 5214,2016 5221,2004 5219,1993 5218,1982 5208,1972 5190,1965 5172,1957 5148,1952 5118,1951 5089,1949 5056,1950 5023,1955 4990,1959 4958,1966 4930,1975 4903,1985 4880,1996 4865,2008 4849,2019 4842,2031 4844,2042 L 4844,2042 4844,2042 Z"/>
         <path fill="none" stroke="rgb(0,0,0)" stroke-width="28" stroke-linejoin="round" d="M 4844,2042 C 4845,2053 4855,2063 4873,2070 4891,2078 4916,2083 4945,2084 4974,2086 5007,2085 5040,2081 5073,2076 5105,2069 5133,2060 5161,2050 5183,2039 5198,2028 5214,2016 5221,2004 5219,1993 5218,1982 5208,1972 5190,1965 5172,1957 5148,1952 5118,1951 5089,1949 5056,1950 5023,1955 4990,1959 4958,1966 4930,1975 4903,1985 4880,1996 4865,2008 4849,2019 4842,2031 4844,2042 Z"/>
         <path fill="none" stroke="rgb(42,96,153)" stroke-width="53" stroke-linejoin="round" d="M 6532,1790 L 6466,1290"/>
         <path fill="none" stroke="rgb(42,96,153)" stroke-width="53" stroke-linejoin="round" d="M 4955,2071 L 5152,1606"/>
         <path fill="none" stroke="rgb(42,96,153)" stroke-width="53" stroke-linejoin="round" d="M 5407,2130 L 5253,1650"/>
         <path fill="rgb(42,96,153)" stroke="none" d="M 6372,502 L 7335,772 6424,892 6372,502 6372,502 6372,502 Z"/>
         <path fill="rgb(42,96,153)" stroke="none" d="M 6108,173 L 6409,516 6158,549 6108,173 6108,173 6108,173 Z"/>
         <path fill="rgb(42,96,153)" stroke="none" d="M 5584,1000 L 4959,1082 4861,332 6110,168 6209,918 5584,1000 5584,1000 Z"/>
         <path fill="rgb(42,96,153)" stroke="none" d="M 6266,1036 L 6055,1064 5990,564 6410,509 6476,1009 6266,1036 6266,1036 Z"/>
         <path fill="rgb(42,96,153)" stroke="none" d="M 4860,331 L 4209,1179 4959,1081 4860,331 4860,331 4860,331 Z"/>
         <path fill="rgb(42,96,153)" stroke="none" d="M 4430,902 L 1095,1626 4467,1182 4430,902 4430,902 4430,902 Z"/>
         <path fill="rgb(42,96,153)" stroke="none" d="M 640,1665 L 1382,1568 414,427 90,470 640,1665 640,1665 Z"/>
         <path fill="rgb(42,96,153)" stroke="none" d="M 1502,1663 L 669,1779 767,2269 1067,2227 1502,1663 1502,1663 Z"/>
         <path fill="rgb(42,96,153)" stroke="none" d="M 5947,1206 L 4823,1354 4774,980 7022,684 7071,1059 5947,1206 5947,1206 Z"/>
         <path fill="rgb(42,96,153)" stroke="none" d="M 5006,1329 L 4943,1337 4831,462 4956,446 5068,1321 5006,1329 5006,1329 Z"/>
         <path fill="rgb(85,48,141)" stroke="none" d="M 3949,1467 L 577,1911 561,1786 7305,899 7321,1024 3949,1467 3949,1467 Z"/>
         <path fill="none" stroke="rgb(255,255,255)" stroke-width="35" stroke-linejoin="round" d="M 5431,1146 L 6246,1546"/>
         <path fill="rgb(0,0,0)" stroke="none" d="M 5510,794 L 5011,860 4956,446 5955,314 6010,728 5510,794 5510,794 Z"/>
         <path fill="rgb(0,44,91)" stroke="none" d="M 5342,1407 L 6068,167 5194,282 5342,1407 5342,1407 5342,1407 Z"/>
         <path fill="rgb(0,44,91)" stroke="none" d="M 5169,1432 L 4989,1455 4842,331 5201,284 5348,1408 5169,1432 5169,1432 Z"/>
         <path fill="rgb(0,44,91)" stroke="none" d="M 4849,335 L 4356,1543 4997,1459 4849,335 4849,335 4849,335 Z"/>
         <path fill="rgb(0,44,91)" stroke="none" d="M 4886,365 L 4196,200 4853,114 4886,365 4886,365 4886,365 Z"/>
         <path fill="rgb(0,44,91)" stroke="none" d="M 5156,301 L 4859,340 4830,116 5424,38 5453,262 5156,301 5156,301 Z"/>
         <path fill="rgb(0,44,91)" stroke="none" d="M 5414,36 L 6069,173 5443,255 5414,36 5414,36 5414,36 Z"/>
         <path fill="rgb(0,0,0)" stroke="none" d="M 6065,213 L 6472,670 6131,715 6065,213 6065,213 6065,213 Z"/>
         <path fill="rgb(85,48,141)" stroke="none" d="M 3212,1184 L 3311,1366 3550,1334 3371,1479 3469,1660 3263,1568 3087,1710 3135,1510 2924,1417 3164,1385 3212,1184 3212,1184 3212,1184 Z"/>
         <path fill="none" stroke="rgb(255,128,0)" stroke-width="18" stroke-linejoin="round" d="M 3212,1184 L 3311,1366 3550,1334 3371,1479 3469,1660 3263,1568 3087,1710 3135,1510 2924,1417 3164,1385 3212,1184 3212,1184 3212,1184 Z"/>
        </g>
       </g>
      </g>
      <g class="com.sun.star.drawing.LineShape">
       <g id="id4">
        <rect class="BoundingBox" stroke="none" fill="none" x="814" y="130" width="2146" height="615"/>
        <path fill="none" stroke="rgb(0,169,51)" stroke-width="159" stroke-linejoin="round" d="M 2506,345 L 894,664"/>
        <path fill="rgb(0,169,51)" stroke="none" d="M 2554,558 L 2945,282 2956,270 2958,257 2950,244 2937,237 2469,131 2464,130 2460,131 2452,135 2444,141 2440,150 2440,159 2516,543 2519,552 2526,559 2536,561 2545,561 2549,561 2554,558 Z"/>
       </g>
      </g>
      <g class="com.sun.star.drawing.LineShape">
       <g id="id5">
        <rect class="BoundingBox" stroke="none" fill="none" x="2618" y="1829" width="2146" height="615"/>
        <path fill="none" stroke="rgb(0,169,51)" stroke-width="159" stroke-linejoin="round" d="M 4310,2044 L 2698,2363"/>
        <path fill="rgb(0,169,51)" stroke="none" d="M 4358,2257 L 4749,1981 4760,1969 4762,1956 4754,1943 4741,1936 4273,1830 4268,1829 4264,1830 4256,1834 4248,1840 4244,1849 4244,1858 4320,2242 4323,2251 4330,2258 4340,2260 4349,2260 4353,2260 4358,2257 Z"/>
       </g>
      </g>
      <g class="com.sun.star.drawing.LineShape">
       <g id="id6">
        <rect class="BoundingBox" stroke="none" fill="none" x="2310" y="380" width="2146" height="615"/>
        <path fill="none" stroke="rgb(0,169,51)" stroke-width="159" stroke-linejoin="round" d="M 4002,595 L 2390,914"/>
        <path fill="rgb(0,169,51)" stroke="none" d="M 4050,808 L 4441,532 4452,520 4454,507 4446,494 4433,487 3965,381 3960,380 3956,381 3948,385 3940,391 3936,400 3936,409 4012,793 4015,802 4022,809 4032,811 4041,811 4045,811 4050,808 Z"/>
       </g>
      </g>
     </g>
    </g>
   </g>
  </g>
 </g>
</svg>